<svg xmlns="http://www.w3.org/2000/svg" width="1641.37" height="1436.27" viewBox="0 0 1641.37 1436.27">
  <defs>
    <style>
      .a {
        fill: #fff;
      }

      .b {
        fill: #573430;
      }

      .c {
        fill: #ffe163;
      }

      .d {
        fill: #8fcadc;
      }
    </style>
  </defs>
  <title>93</title>
  <g>
    <path class="a" d="M1519.08,594c7.66-3.76,15.93-4,21.26-.5a11.83,11.83,0,0,1,4,4.22c5.37,9.71,1.89,17.73-12.36,30.26-4.37,3.84-9.75,8.11-16.2,13-7.33,5.52-10.94,12.37-14.06,23-1.19,4-2.31,8.57-3.53,13.79-1.63,7.12-3,14.63-4,21.87l-56.47,36.8h0L1415,692.58c1.74-7,3.71-14.54,5.69-21l0-.16c-18.55-5.31-38.23-18.81-34.15-55.31,2.35-21.13,4.09-36.49,7.47-56.26.74-4.32,1.56-8.87,2.47-13.73C1445.22,529,1520.42,563.21,1519.08,594ZM1465.6,602a4.77,4.77,0,1,0-4.77,4.77A4.77,4.77,0,0,0,1465.6,602Zm-50.42-7.89a4.77,4.77,0,1,0-4.77,4.77A4.77,4.77,0,0,0,1415.18,594.06Z" transform="translate(-170 -282.54)"/>
    <path class="b" d="M1528,504.31c-43.43-23.22-89.22-25.45-124.41-12.8-16.43,5.91-23.7,22.31-23.29,40.32.15,5.87,2.61,27.13,13.75,28.06.7-4.08,1.47-8.38,2.33-12.94,4.15,8.82,21.36,10.2,29.22.75,3.73,7.93,10.8,7.21,21,3a31.11,31.11,0,0,1,23.35-.18c16.45,6.5,42.08,21,42.08,48.31l10.16-6.06c6.74-2.47,13.6-2.24,18.24.78l5.12,6.66C1562.35,563.3,1561.87,522.44,1528,504.31Z" transform="translate(-170 -282.54)"/>
    <path class="a" d="M1546.27,1090c-3.39-20.24-5.8-34.43-6.88-40.36-8.45,4.09-22.23,7.2-39.1,9.43-65,8.59-175.92,4-204.74-8.82l-.5,0c0,.31.06.62.08.92,4.33,39.53,57.51,440.36,83.48,607.57h90.9l-42.16-484.68c31.75,127.11,119.76,454.21,127.91,484.68h90.9C1635.73,1638.49,1568.95,1225.24,1546.27,1090Z" transform="translate(-170 -282.54)"/>
    <path class="a" d="M1516.84,1033a73.11,73.11,0,0,0,23,2.75v.07c-.32,5.07-.43,9.52-.43,13.82-8.45,4.09-22.23,7.2-39.1,9.43-65,8.59-175.92,4-204.74-8.82l-.5,0a152.38,152.38,0,0,1,.67-28.94c29.7,13.09,143.63,17.47,206.89,7.67v0Z" transform="translate(-170 -282.54)"/>
    <path class="c" d="M1502.62,1029v0c-63.27,9.8-177.2,5.42-206.89-7.67.87-7,2.35-13.65,4.67-18.5l-.2-.76,57.36-14.85.26,1C1387.53,996.67,1441,1011.59,1502.62,1029Z" transform="translate(-170 -282.54)"/>
    <path class="a" d="M1523.8,922.59c6.18-.47,12.84.65,13.16,4.47.59,7-23.31,12-35.48,13.48,8.88,2.09,28,0,28,8.27,0,7.94-25.45,3.82-43.89,5.33l-41.34,10.7c-8.38,1.27-17.36-10.46-20-27.18-2.62-16.27,1.67-30.6,9.6-32.67,9.47-1.44,17.79-2.62,24.34-3.41l1.19-.15c33.7-4.18,37.73-4.71,58.06-5.86v0c7.22-.62,12.27.11,13.65,1.5,3.72,3.75-1.32,9.92-15.57,13.18,13.2-1.93,24.78-2,24.78,4.11,0,4-9.46,7-16.49,8.11Z" transform="translate(-170 -282.54)"/>
    <path class="c" d="M1517.42,895.57c-20.33,1.14-24.36,1.68-58.06,5.86l-1.19.15c-6.55.8-14.87,2-24.34,3.41-7.52,1.14-15.77,2.45-24.44,3.87l-.09-.58c11.9-67.18,19.33-116,28.73-171.14l17.5,31.53,54.67-48.42c17.46,8.15,42,19.82,63.41,29.92a69.49,69.49,0,0,1,39.82,64.17c-.81,42.27-2.28,100.24-3.47,150.05a73.07,73.07,0,0,1-93.13,68.68l-14.23-4c-61.6-17.43-115.08-32.35-144.82-40.71l-.26-1,86.75-22.45,41.34-10.7c18.44-1.51,43.89,2.61,43.89-5.33,0-8.27-19.15-6.18-28-8.27,12.18-1.46,36.08-6.48,35.48-13.48-.32-3.82-7-4.94-13.16-4.47v-.1c7-1.09,16.49-4.06,16.49-8.11,0-6.1-11.59-6-24.78-4.11,14.25-3.26,19.29-9.43,15.57-13.18-1.38-1.39-6.43-2.12-13.65-1.5Z" transform="translate(-170 -282.54)"/>
    <path class="c" d="M1414.6,691.9l.36.68c-1.11,4.43-2.12,8.6-3,12-5.56.74-12.23,1.69-19.63,2.81l0-.08Z" transform="translate(-170 -282.54)"/>
    <path class="c" d="M1494.13,699.63l16.09,20.61c-7.42-3.47-13.57-6.29-17.66-8.11C1493,708.16,1493.5,703.94,1494.13,699.63Z" transform="translate(-170 -282.54)"/>
    <path class="c" d="M1409.4,908.86c8.66-1.42,16.91-2.73,24.44-3.87-7.94,2.07-12.22,16.4-9.6,32.67,2.69,16.73,11.66,28.45,20,27.18l-86.75,22.45-57.36,14.85-26.81,6.94c-34.62,8.89-62.89-23-54.83-57.82,16-69,30.21-138.33,42.46-177.19a80.47,80.47,0,0,1,62.16-55c23.57-4.33,49.11-8.59,69.21-11.63l15.57,53.92,29.7-24.93h0l.39.71c-9.4,55.11-16.84,104-28.73,171.14Z" transform="translate(-170 -282.54)"/>
    <path class="a" d="M1292.43,879.91c-2.73,4,1.54,8,6.82,11.35-3.93-1.93-8.1-3.91-13-6.15-14.43-6.65-20.65,5-9.21,10.82,15.16,7.77,19.12,9.69,23.89,12.83l0,0c-7-4.35-27.55-16.23-31.36-7.77-2.16,4.8,8.35,10.18,15.71,13.89-3.26-1.51-6.32-2.46-8.44-2-6.42,1.31-7,7-.1,11.23,4.08,2.47,8.3,5,11.26,6.85l77.59-14.75C1349.63,904,1300,869,1292.43,879.91Z" transform="translate(-170 -282.54)"/>
    <path class="c" d="M1415,692.58l22.68,43.84-29.7,24.93-15.57-53.92c7.4-1.12,14.07-2.07,19.63-2.81C1412.84,701.18,1413.85,697,1415,692.58Z" transform="translate(-170 -282.54)"/>
    <path class="c" d="M1438,737.13l-.39-.71,56.47-36.8c-.63,4.31-1.14,8.53-1.58,12.51,4.1,1.81,10.24,4.64,17.66,8.11l-54.67,48.42Z" transform="translate(-170 -282.54)"/>
    <path class="b" d="M1531.93,628l.18.2c-2.54,6.19-10.81,32.46-30.44,35.74,3.12-10.6,6.73-17.45,14.06-23C1522.18,636.13,1527.57,631.87,1531.93,628Z" transform="translate(-170 -282.54)"/>
    <path class="b" d="M1511.94,600.5a1.68,1.68,0,0,1-1.68-1.68c0-26.56-25.7-40.69-41-46.75a29.29,29.29,0,0,0-22.09.17c-8.54,3.54-17,5.68-22-1.75a22.21,22.21,0,0,1-18.62,5c-6-1-10.52-4.33-12.15-8.8a1.68,1.68,0,0,1,3.16-1.15c1.21,3.33,4.79,5.81,9.57,6.64,6.61,1.15,13.32-1.05,17.11-5.61a1.68,1.68,0,0,1,2.81.36c2.86,6.07,8,6.66,18.8,2.17a32.63,32.63,0,0,1,24.61-.19c16.11,6.37,43.15,21.32,43.15,49.87A1.68,1.68,0,0,1,1511.94,600.5Z" transform="translate(-170 -282.54)"/>
    <path class="a" d="M1019.6,750.83c4.33-.39,12.31-.21,12.39,4.51.08,4.43-22.41,10.52-40.57,24.77,1.89-.44,35.48-15.73,40.15-5.28,2,4.43-9.85,8.6-12.92,9.91-27.77,11.91-35.2,23.08-51.68,46-6.75,9.4-13.89,20-21.36,31.08l-.34-.22c-25.82,2.12-49.7-17.95-52.31-41.47l13.52-13.69c.41-.38.81-.78,1.18-1.2,10.7-11.62,13.76-37.2,2.12-54.83-1.52-2.3-7.2-6.48-6.71-9.42,1.24-7.53,12.32-3.9,16.6-1.52,8.09,4.48,13.15,14.44,21.89,16.39,16.71,3.71,34.66-24.92,64.35-24.92,8.59,0,9,6.64,2.65,9.23,1.32-.4,2.65-.77,4-1.12,15.81-4,22.42,4.87,7,11.73Z" transform="translate(-170 -282.54)"/>
    <path class="a" d="M643.94,1161.38,525.83,1658.83h-90.9s45.66-287.59,83.14-541.55h0c14.25-1.83,40.77-5.51,47.5-33.16l-.09-.34c4.33-1.09,9-2.38,14-3.93,6.82-2.1,10.05-5.11,7.1-9.39-1.89-2.74-4.15-4.07-5.11-5,4.71-1.6,8-2.78,9.54-4.69,52.29,7.81,139.33,3.65,167-11.67h.58c4.42,209.77-7.79,499.69-7.79,609.77h-90.9L644,1161.39Z" transform="translate(-170 -282.54)"/>
    <path class="a" d="M565.49,1083.78l.09.34c-6.73,27.65-33.25,31.34-47.5,33.16h0q2.13-14.36,4.21-28.64l.06-.53C532.73,1089.3,545.84,1088.73,565.49,1083.78Z" transform="translate(-170 -282.54)"/>
    <path class="a" d="M591,1060.74a4.84,4.84,0,0,0,.79-4.25c-.45-2.21-4.09-4.46-9.19-4.5,6.72-1.43,12.9-3.28,12.93-5.8.06-4.95-6.51-6.94-14.89-7.28a7,7,0,0,0,7.43-4.92l.54.09c59.62,10,139.47,3.37,168.49-12.69l.79,0q.4,13.64.69,27.69H758C730.34,1064.39,643.3,1068.55,591,1060.74Z" transform="translate(-170 -282.54)"/>
    <path class="a" d="M580.66,1038.9c8.37.34,14.94,2.33,14.89,7.28,0,2.52-6.21,4.37-12.93,5.8,5.1,0,8.74,2.3,9.19,4.5a4.84,4.84,0,0,1-.79,4.25c-1.53,1.91-4.82,3.09-9.54,4.69,3.82,0,3.33,1.86,5.22,4.6,3,4.28-.4,7.72-7.22,9.82-5,1.55-9.66,2.84-14,3.93-19.66,4.95-32.76,5.52-43.16,4.33a85.49,85.49,0,0,1-8.94-1.5c-19.25-4.25-42.12-18.7-65-37.32l0,0c1.13-27.24,23.66-48.76,47.37-48.84l19.91,26.19s7-12.42,16.56-15.42l1.5.12c-.55,7-1.23,13.6-2,19.83,23.73-5.59,52.3-5.5,55.3-1.61a5.23,5.23,0,0,1,1,4.46A7,7,0,0,1,580.66,1038.9Z" transform="translate(-170 -282.54)"/>
    <path class="d" d="M524.05,861.71h0L442.9,930.81l52.94,69.62c-23.71.08-46.24,21.6-47.37,48.84l0,0c-33.85-27.6-67.6-64.38-89.33-90.79a53.81,53.81,0,0,1-3.28-64.38l66.69-102c56.19-80.1,163.38-83.9,163.38-83.9v-.57c1.2,16.17,21,28.07,45.89,26.6,21.87-1.29,34.36-15.83,33.28-32.08h.08l0,.41c57.48-4.12,116.8,30.27,142.17,82,12.4,25.3,37.29,84.58,37.29,84.58l48.35-49c2.61,23.52,26.48,43.59,52.31,41.47l.34.22c-32.41,48-70.79,104.33-108.59,105.45-35.24.12-77.44-61.84-87-79.22,4,38.41,6.45,83.87,7.89,133.31l-.79,0c-29,16.06-108.87,22.66-168.49,12.69l-.54-.09a5.23,5.23,0,0,0-1-4.46c-3-3.89-31.57-4-55.3,1.61.82-6.23,1.5-12.86,2-19.83,3.67-46.52,1.21-107.19-9.74-149.6Z" transform="translate(-170 -282.54)"/>
    <path class="a" d="M666.83,671.1l1.54,31.52h-.08c1.14,17-12,32.29-34.9,33.64-26.06,1.54-46.88-10.94-48.13-27.9l0-32.11a32,32,0,0,0-2.08-11.17c-8.37-22.52-39.71-35.78-47.17-45-7.83-9.72-2.32-22.63,9.86-25.25,8.11-1.74,20.06,2.42,26.91,9,3.72,3.6,7.84,3.12,10,1.33,1.63-1.35,2.27-4.1,1-7.22-8.93-18.2-2.72-30.49,3.39-36.61,18.51-18.52,54.31-12.27,83.5-34.69l0,0c11.39,21.28,19.38,47.57,25.84,70.79,3.91,14,7.22,31.2,2.69,45.41-3.86,12.09-14.6,20.78-26,25.62C671.32,669.3,669.18,670.18,666.83,671.1Z" transform="translate(-170 -282.54)"/>
    <path class="b" d="M627.37,492.24c12.08-10.36,46.06-17.14,54.8-3.17,8.24,13.17,4,24.44-8.56,35.17-1,.83-2,1.63-3,2.41-29.2,22.42-65,16.17-83.5,34.69-6.12,6.12-12.33,18.41-3.39,36.61,1.3,3.12.67,5.87-1,7.22-2.14,1.8-6.26,2.28-10-1.33-6.84-6.62-18.79-10.78-26.91-9-12.19,2.62-17.69,15.52-9.86,25.25,7.45,9.24,38.8,22.5,47.17,45-5.17,3.19-14.57,2-22.09-3.33-4.37-3.09-51.65-33-59-59.54-17.47-62.69,23.87-61.85,58.37-95.25,16.94-16.4,42.6-57,64.4-42.08C635.82,472.36,632.24,485.35,627.37,492.24Z" transform="translate(-170 -282.54)"/>
    <path class="b" d="M531.76,1032.82h-.22a1.68,1.68,0,0,1-1.45-1.88c.81-6.16,1.49-12.8,2-19.74a1.68,1.68,0,0,1,3.35.26c-.55,7-1.24,13.69-2.06,19.91A1.68,1.68,0,0,1,531.76,1032.82Z" transform="translate(-170 -282.54)"/>
    <path class="b" d="M525.83,1660.51H434.92a1.68,1.68,0,0,1-1.66-1.94c.49-3.08,49.6-311,87.35-570.17a1.68,1.68,0,1,1,3.32.48c-36.18,248.43-82.79,541.58-87,568.27H524.5l123.43-518.82a1.68,1.68,0,0,1,3.27.78L527.47,1659.22A1.68,1.68,0,0,1,525.83,1660.51Z" transform="translate(-170 -282.54)"/>
    <path class="b" d="M750.82,1660.51H659.91a1.68,1.68,0,0,1-1.68-1.63l-15.92-497.44a1.68,1.68,0,0,1,1.62-1.73,1.71,1.71,0,0,1,1.73,1.63l15.87,495.82h87.6c0-38.25,1.51-97.71,3.2-166.4,3.4-138,8.05-326.88,3.89-469.33a1.68,1.68,0,0,1,1.63-1.73,1.71,1.71,0,0,1,1.73,1.63c4.16,142.53-.49,331.52-3.89,469.51-1.72,69.68-3.2,129.86-3.2,168A1.68,1.68,0,0,1,750.82,1660.51Z" transform="translate(-170 -282.54)"/>
    <path class="b" d="M848.8,1718.81H309.47a1.73,1.73,0,1,1,0-3.47H848.8a1.73,1.73,0,1,1,0,3.47Z" transform="translate(-170 -282.54)"/>
    <path class="b" d="M515.75,1028.29a1.68,1.68,0,0,1-1.38-2.63c.36-.52,8.89-12.81,18.94-15.95a1.68,1.68,0,1,1,1,3.21c-8.93,2.79-17.09,14.52-17.17,14.64A1.68,1.68,0,0,1,515.75,1028.29Z" transform="translate(-170 -282.54)"/>
    <path class="b" d="M515.75,1028.29a1.68,1.68,0,0,1-1.34-.66l-19.92-26.19a1.68,1.68,0,0,1,2.67-2l19.91,26.19a1.68,1.68,0,0,1-1.34,2.7Z" transform="translate(-170 -282.54)"/>
    <path class="b" d="M447.92,1658.83c-4.26,15.9-44.19,38.25-66.71,40.41s-26,17.83-26,17.83H503.37l11.26-58.25Z" transform="translate(-170 -282.54)"/>
    <path class="b" d="M789.18,1699.24c-22.52-2.17-46.83-24.51-51.09-40.41H671.37L667,1717.08H815.17S811.7,1701.41,789.18,1699.24Z" transform="translate(-170 -282.54)"/>
    <path class="b" d="M518.09,1119a1.68,1.68,0,0,1-.21-3.35c13.82-1.77,39.54-5.08,46.07-31.9a1.68,1.68,0,0,1,3.26.79c-7.07,29.07-35.33,32.69-48.91,34.44Z" transform="translate(-170 -282.54)"/>
    <path class="b" d="M650.41,1040.45a384.37,384.37,0,0,1-62.06-4.72,1.68,1.68,0,1,1,.55-3.31c58.2,9.73,138,3.77,167.41-12.5a1.68,1.68,0,0,1,1.63,2.94C737.76,1034,694.48,1040.45,650.41,1040.45Z" transform="translate(-170 -282.54)"/>
    <path class="b" d="M650.8,1066.26c-21.64,0-42.81-1.29-60-3.87a1.68,1.68,0,0,1,.5-3.32c51.47,7.7,138.16,3.92,166-11.47a1.68,1.68,0,0,1,1.63,2.94C739.9,1061,694.41,1066.26,650.8,1066.26Z" transform="translate(-170 -282.54)"/>
    <path class="b" d="M585.25,710.69h0a1.68,1.68,0,0,1-1.68-1.68l0-32.76a1.68,1.68,0,0,1,1.68-1.68h0a1.68,1.68,0,0,1,1.68,1.68l0,32.76A1.68,1.68,0,0,1,585.25,710.69Z" transform="translate(-170 -282.54)"/>
    <path class="b" d="M668.39,704.72a1.68,1.68,0,0,1-1.68-1.6l-1.56-31.95a1.68,1.68,0,0,1,3.35-.16L670.07,703a1.68,1.68,0,0,1-1.6,1.76Z" transform="translate(-170 -282.54)"/>
    <path class="b" d="M568.3,615.25a1.68,1.68,0,0,1-1.43-.8c-1.27-2.06-5.48-4.73-10.32-5.65-3.64-.69-6.8-.2-8.92,1.39a1.68,1.68,0,0,1-2-2.69c3.69-2.76,8.32-2.61,11.55-2,5.32,1,10.6,4,12.55,7.18a1.68,1.68,0,0,1-1.43,2.56Z" transform="translate(-170 -282.54)"/>
    <path class="b" d="M556.91,618.58a1.68,1.68,0,0,1-1.19-.49,8.41,8.41,0,0,1-2.22-6.52,7.16,7.16,0,0,1,2.27-5.2,1.68,1.68,0,0,1,2.06,2.65,4.21,4.21,0,0,0-1,2.76,5.08,5.08,0,0,0,1.24,3.93,1.68,1.68,0,0,1-1.19,2.87Z" transform="translate(-170 -282.54)"/>
    <path class="b" d="M652.59,677.76a1.68,1.68,0,0,1-.49-3.29c8.62-2.65,16.5-5.83,20.42-7.49,12.66-5.36,21.8-14.32,25.08-24.58,4.63-14.49.68-32.31-2.7-44.45-6.41-23.06-14.48-49.46-25.7-70.45a1.68,1.68,0,1,1,3-1.58c11.38,21.28,19.51,47.9,26,71.13,3.49,12.56,7.56,31,2.66,46.37-3.57,11.19-13.4,20.91-27,26.65-4,1.69-12,4.92-20.75,7.61A1.68,1.68,0,0,1,652.59,677.76Z" transform="translate(-170 -282.54)"/>
    <path class="b" d="M662.44,618.43a1.68,1.68,0,0,1-.32-3.33c4.85-.93,7.77-2.48,8.45-4.48,1.22-3.58-4-9.48-8.13-14.23-1.26-1.43-2.45-2.79-3.48-4.08a1.68,1.68,0,1,1,2.62-2.1c1,1.23,2.15,2.56,3.38,4,5,5.68,10.64,12.11,8.79,17.53-1.13,3.29-4.72,5.48-11,6.69A1.7,1.7,0,0,1,662.44,618.43Z" transform="translate(-170 -282.54)"/>
    <path class="b" d="M655.87,646.19a22.23,22.23,0,0,1-4.41-.43c-4.87-1-8.38-3.54-9.86-7.2a1.68,1.68,0,1,1,3.11-1.26c1.41,3.48,5.25,4.73,7.41,5.17,5.38,1.09,11.68-.33,14.65-3.3a1.68,1.68,0,1,1,2.37,2.37C666.23,644.46,661.07,646.19,655.87,646.19Z" transform="translate(-170 -282.54)"/>
    <path class="b" d="M531.7,1090.34a83.65,83.65,0,0,1-18.68-2.09c-15.36-3.4-39.88-17.48-65.6-37.67a1.68,1.68,0,0,1,2.07-2.64c25.34,19.89,49.36,33.74,64.25,37,13.12,2.9,30.1,4.09,65.24-6.73,3.87-1.19,6.42-2.82,7-4.46.11-.3.43-1.23-.66-2.79-3.39-4.89-15.29-2-24,.19-2.71.67-5.26,1.3-7.32,1.64a1.68,1.68,0,1,1-.55-3.31c1.93-.32,4.43-.94,7.07-1.59,10.18-2.51,22.85-5.64,27.55,1.15a6.27,6.27,0,0,1,1.07,5.81c-1,2.79-4.05,5-9.18,6.58C558.19,1088.16,543.17,1090.34,531.7,1090.34Z" transform="translate(-170 -282.54)"/>
    <path class="b" d="M582.59,1053.67a1.68,1.68,0,0,1-.35-3.32c10.76-2.29,11.57-4,11.63-4.21a2.56,2.56,0,0,0-1.13-2.09c-5.69-4.64-28.3-3.31-42-.32a1.68,1.68,0,1,1-.72-3.28c10.78-2.35,37-5.36,44.84,1a6,6,0,0,1,2.36,4.76c0,3.16-4,5.25-14.29,7.43A1.67,1.67,0,0,1,582.59,1053.67Z" transform="translate(-170 -282.54)"/>
    <path class="b" d="M580.94,1041l-.62,0a1.68,1.68,0,0,1,.22-3.35,5.81,5.81,0,0,0,5.46-2.93,3.76,3.76,0,0,0-.27-4.17c-2.28-2.79-29.1-3.54-53.58,2.22a1.68,1.68,0,1,1-.77-3.27c21.35-5,52.83-6.41,57-1a7,7,0,0,1,.57,7.8A9.06,9.06,0,0,1,580.94,1041Z" transform="translate(-170 -282.54)"/>
    <path class="b" d="M574.53,1068.51a1.68,1.68,0,0,1-.54-3.27l2.59-.86c5.3-1.73,14.17-4.63,13.58-7.57-.28-1.38-4.25-4-10.69-2.88-12.86,2.3-27.1,4.53-27.24,4.55a1.68,1.68,0,0,1-.52-3.32c.14,0,14.34-2.24,27.17-4.54,7.66-1.37,13.83,1.81,14.58,5.52,1.18,5.86-7.85,8.82-15.83,11.42l-2.56.85A1.67,1.67,0,0,1,574.53,1068.51Z" transform="translate(-170 -282.54)"/>
    <path class="b" d="M585.28,677.92a1.68,1.68,0,0,1-1.68-1.67c-.09-20.14-20.23-34-34.94-44.11-6.07-4.17-11.31-7.78-13.93-11a16.7,16.7,0,0,1-3.07-16.31,18.48,18.48,0,0,1,13.89-11.63c8.56-1.83,21,2.33,28.43,9.48,2.94,2.85,6.07,2.64,7.74,1.25,1-.83,1.52-2.77.51-5.25-10.31-21.06-.83-33.94,3.73-38.5,9.38-9.38,23-12.63,37.51-16.08,15.79-3.76,33.69-8,49.06-21.11,8.76-7.46,17.16-19.48,7.42-34.34-2.41-3.68-7.89-5-12.06-5.4-13.62-1.4-33.34,4.12-40.59,11.36a1.68,1.68,0,0,1-2.37-2.37c8-8,28.6-13.84,43.3-12.33,7,.72,12,3.11,14.53,6.9,8.64,13.2,5.78,27-8.05,38.74-16,13.61-34.3,18-50.46,21.82-14.6,3.48-27.21,6.48-35.91,15.19-4.05,4.05-12.47,15.55-3.07,34.69l0,.09c1.49,3.58.93,7.18-1.43,9.16-2.87,2.4-8,2.69-12.23-1.41-6.55-6.34-17.94-10.2-25.39-8.6a15.14,15.14,0,0,0-11.43,9.46A13.41,13.41,0,0,0,537.35,619c2.31,2.87,7.37,6.35,13.22,10.37,15.32,10.54,36.29,25,36.39,46.87a1.68,1.68,0,0,1-1.67,1.69Z" transform="translate(-170 -282.54)"/>
    <path class="b" d="M611.42,585.13a2.8,2.8,0,0,1-1.48-5.18,120.79,120.79,0,0,1,13.83-7.26,2.8,2.8,0,0,1,2.32,5.09,115.47,115.47,0,0,0-13.2,6.92A2.78,2.78,0,0,1,611.42,585.13Z" transform="translate(-170 -282.54)"/>
    <path class="b" d="M662.74,561.78a2.8,2.8,0,0,1-1-5.42c3.87-1.44,8.13-2.77,13.4-4.18a2.8,2.8,0,1,1,1.45,5.41c-5.1,1.37-9.2,2.64-12.9,4A2.78,2.78,0,0,1,662.74,561.78Z" transform="translate(-170 -282.54)"/>
    <path class="b" d="M945.28,863.29a1.68,1.68,0,0,1-1.39-2.62c7.09-10.5,14.3-20.55,20.66-29.41l2.46-3.43c15.7-21.9,23.58-32.89,51-44.65l1.29-.53c2.66-1.08,9.74-3.94,10.75-6.45a.8.8,0,0,0,0-.7c-1.54-3.44-9-5.32-35.55,5.23a26.53,26.53,0,0,1-2.68,1,1.68,1.68,0,0,1-.77-3.27c.24-.07,1.24-.47,2.21-.85,15.1-6,35.67-12.87,39.86-3.48a4.16,4.16,0,0,1,0,3.33c-1.43,3.54-7.25,6.14-12.6,8.31l-1.22.5c-26.55,11.39-34.25,22.13-49.58,43.52l-2.46,3.43c-6.35,8.85-13.55,18.87-20.6,29.33A1.68,1.68,0,0,1,945.28,863.29Z" transform="translate(-170 -282.54)"/>
    <path class="b" d="M991.43,781.78a1.68,1.68,0,0,1-1-3c9.64-7.56,20.53-12.89,28.49-16.77,5.17-2.53,11-5.39,11.44-6.71a1.83,1.83,0,0,0-.77-1.43c-2.47-2-9.46-1.59-11.83-1.1-9.89,2-21,7.07-31.25,14.16a1.68,1.68,0,1,1-1.91-2.76c10.63-7.34,22.16-12.56,32.48-14.69.1,0,10.14-1.81,14.61,1.77a5.18,5.18,0,0,1,2,4.07c.05,3.18-4.69,5.5-13.31,9.71-7.82,3.82-18.54,9.06-27.89,16.4A1.67,1.67,0,0,1,991.43,781.78Z" transform="translate(-170 -282.54)"/>
    <path class="b" d="M978.64,756a1.68,1.68,0,0,1-.87-3.12c9.94-6,21-12,34.42-15.45,8.83-2.25,16.06-.76,17.58,3.6,1.33,3.84-2.21,8.06-9.48,11.29a1.68,1.68,0,1,1-1.37-3.07c6-2.69,8.21-5.58,7.67-7.12-.63-1.82-5.38-3.53-13.58-1.45-13,3.3-23.79,9.2-33.51,15.07A1.67,1.67,0,0,1,978.64,756Z" transform="translate(-170 -282.54)"/>
    <circle class="b" cx="457.25" cy="314.2" r="4.65"/>
    <circle class="b" cx="508.08" cy="295.65" r="4.65"/>
    <path class="b" d="M495.84,1002.1a1.68,1.68,0,0,1-1.43-.8c-3-4.85-15-20.77-25.63-34.81-8.25-10.92-16-21.24-19.33-26-.49-.71-1.11-1.56-1.82-2.54-1-1.36-2.1-2.9-3.25-4.55a81.6,81.6,0,0,1-11.15,9.19,1.68,1.68,0,0,1-2-2.72,78.11,78.11,0,0,0,11.19-9.34c-4.21-6.43-8.12-13.88-7-19.23a7.31,7.31,0,0,1,3.52-5,7,7,0,0,1,7.15-.44c3.38,1.71,5.44,5.87,5.73,9.1.56,6.28-1.71,11.45-5.14,15.79,1.36,2,2.65,3.78,3.68,5.2.72,1,1.35,1.87,1.85,2.59,3.24,4.67,11,15,19.25,25.86,11.17,14.79,22.73,30.09,25.81,35.07a1.68,1.68,0,0,1-1.43,2.56ZM443,908.52a4.44,4.44,0,0,0-2.29.72,4,4,0,0,0-2,2.77c-.8,3.94,2.46,10.28,6,15.85a17.76,17.76,0,0,0,3.76-12.53c-.2-2.23-1.75-5.31-3.9-6.4A3.51,3.51,0,0,0,443,908.52Z" transform="translate(-170 -282.54)"/>
    <path class="b" d="M837.39,873.86a6.42,6.42,0,0,1-.89-.06,1.68,1.68,0,1,1,.47-3.33c2.75.38,7.48-2.84,10.7-5.73,3.87-3.48,14.54-14.72,25.84-26.63,6.33-6.67,12.87-13.56,18.27-19.14l.09-.09c.93-.94,10.07-10.14,13.15-13.33,11.19-11.58,15.66-35.59,3.37-54.2a21.53,21.53,0,0,0-2.18-2.43c-2.46-2.51-5.25-5.36-4.78-8.19a6.55,6.55,0,0,1,3.63-5.08c4.9-2.37,12.81.9,15.44,2.36,3.61,2,6.6,5,9.48,7.85,3.8,3.78,7.38,7.35,12,8.37,7.07,1.57,14.86-3.53,23.88-9.43,11.12-7.28,23.72-15.53,40.11-15.53,5.61,0,8.11,2.58,8.58,5,.58,2.94-1.55,5.94-5.29,7.46a1.68,1.68,0,0,1-1.27-3.11c2.53-1,3.47-2.64,3.26-3.7s-1.71-2.28-5.28-2.28c-15.39,0-27.54,8-38.27,15-9.65,6.32-18,11.78-26.44,9.9-5.54-1.23-9.64-5.32-13.61-9.27-2.72-2.71-5.54-5.52-8.74-7.29s-9.35-3.73-12.35-2.28a3.2,3.2,0,0,0-1.78,2.61c-.19,1.15,2.45,3.85,3.87,5.29a22.54,22.54,0,0,1,2.59,2.92c13.21,20,8.33,45.87-3.76,58.38-3.25,3.36-13.16,13.34-13.26,13.44l-.06.06c-5.38,5.56-11.88,12.41-18.17,19-11.34,12-22.06,23.25-26,26.82C847.61,869.3,842,873.86,837.39,873.86Z" transform="translate(-170 -282.54)"/>
    <path class="b" d="M576.1,668.52a28.57,28.57,0,0,1-16-5.41l-.68-.48c-14.87-10.39-50.38-37-59-59.84-6.93-18.4-12.1-45.75,22.91-70.66,19-13.53,39.73-29.67,62.44-56,13.84-16,29.17-20.87,40-12.61a18.5,18.5,0,0,1,7.57,12.65c.9,7-2.19,13.92-5.39,18a1.68,1.68,0,0,1-2.64-2.07c2.78-3.54,5.47-9.48,4.7-15.5a15.25,15.25,0,0,0-6.27-10.4c-9.28-7.08-22.86-2.43-35.43,12.13-22.95,26.59-43.86,42.89-63,56.54-32.75,23.31-28.81,47.91-21.72,66.74,8.26,21.94,43.14,48.06,57.76,58.27l.69.48c6.8,4.8,15.51,6.22,20.25,3.29a1.68,1.68,0,0,1,1.77,2.86A15.16,15.16,0,0,1,576.1,668.52Z" transform="translate(-170 -282.54)"/>
    <path class="a" d="M623.65,496.06a1.68,1.68,0,0,1-1.07-3,52.81,52.81,0,0,1,16.69-9.59,1.68,1.68,0,0,1,1.09,3.18,49.5,49.5,0,0,0-15.64,9A1.67,1.67,0,0,1,623.65,496.06Z" transform="translate(-170 -282.54)"/>
    <path class="b" d="M363.94,960.07a1.68,1.68,0,0,1-1.46-2.5c7.67-13.74,6.83-29.67,4.77-40.62l-.28-1.52c-1.42-7.64-3.18-17.16-8.23-22.7a1.68,1.68,0,0,1,2.48-2.26c5.69,6.25,7.55,16.29,9,24.35l.28,1.51c3.1,16.49,1.32,31.31-5.14,42.88A1.68,1.68,0,0,1,363.94,960.07Z" transform="translate(-170 -282.54)"/>
    <path class="b" d="M866,953.93a1.68,1.68,0,0,1-1.37-.7c-4.2-5.86-14.32-10-26.42-10.78-12.42-.8-23.39,2.19-28.63,7.81a1.68,1.68,0,1,1-2.46-2.29c5.92-6.34,17.92-9.74,31.31-8.88,13.08.85,24.17,5.51,28.93,12.17a1.68,1.68,0,0,1-1.36,2.66Z" transform="translate(-170 -282.54)"/>
    <path class="b" d="M649.56,1106.21a1.68,1.68,0,0,1,0-3.36c15.64,0,16.42-7.05,18.33-24.09l.07-.67a229.38,229.38,0,0,0,1.51-39.21,1.68,1.68,0,0,1,3.35-.18,232.54,232.54,0,0,1-1.53,39.76l-.07.67C669.34,1096,668.21,1106.21,649.56,1106.21Z" transform="translate(-170 -282.54)"/>
    <path class="b" d="M757.91,1023.05a1.68,1.68,0,0,1-1.68-1.61c0-1.14-4.77-115.17-13.36-177.28a1.68,1.68,0,1,1,3.33-.46c8.61,62.27,13.34,176.45,13.39,177.6A1.68,1.68,0,0,1,758,1023Z" transform="translate(-170 -282.54)"/>
    <g>
      <rect class="a" x="698.05" y="93.44" width="394.23" height="301.44" rx="9.82" ry="9.82"/>
      <path class="b" d="M1252.46,679.92H877.88a12.34,12.34,0,0,1-12.32-12.32V385.81a12.34,12.34,0,0,1,12.32-12.32h374.58a12.34,12.34,0,0,1,12.32,12.32V667.6A12.34,12.34,0,0,1,1252.46,679.92ZM877.88,378.49a7.33,7.33,0,0,0-7.32,7.32V667.6a7.33,7.33,0,0,0,7.32,7.32h374.58a7.33,7.33,0,0,0,7.32-7.32V385.81a7.33,7.33,0,0,0-7.32-7.32Z" transform="translate(-170 -282.54)"/>
      <rect class="b" x="698.05" y="139.62" width="394.23" height="4.9"/>
      <circle class="b" cx="993.55" cy="117.68" r="6.63"/>
      <circle class="b" cx="1025.76" cy="117.68" r="6.63"/>
      <circle class="b" cx="1056.25" cy="117.68" r="6.63"/>
      <g>
        <path class="b" d="M1229.92,497.29H1118.84a2.5,2.5,0,0,1,0-5h111.08a2.5,2.5,0,0,1,0,5Z" transform="translate(-170 -282.54)"/>
        <path class="b" d="M1229.92,548.65h-75.42a2.5,2.5,0,0,1,0-5h75.42a2.5,2.5,0,0,1,0,5Z" transform="translate(-170 -282.54)"/>
        <path class="b" d="M1229.92,600h-50.29a2.5,2.5,0,0,1,0-5h50.29a2.5,2.5,0,0,1,0,5Z" transform="translate(-170 -282.54)"/>
      </g>
    </g>
    <path class="b" d="M1789,1718.81H1249.66a1.73,1.73,0,1,1,0-3.47H1789a1.73,1.73,0,1,1,0,3.47Z" transform="translate(-170 -282.54)"/>
    <path class="b" d="M1393,1658.83c-4.26,15.9-26,38.25-48.53,40.41s-26,17.83-26,17.83h148.16l-6.92-58.25Z" transform="translate(-170 -282.54)"/>
    <path class="b" d="M1701.95,1700.55c-22.52-2.17-62.88-24.51-67.14-40.41H1568.1l11.69,58.25h148.16S1724.47,1702.72,1701.95,1700.55Z" transform="translate(-170 -282.54)"/>
    <path class="b" d="M1421.42,1065.17l-5.75,0c-55.07-.34-103.62-5.7-120.81-13.34a1.68,1.68,0,1,1,1.36-3.07c36.53,16.23,202.3,18.83,242.44-.58a1.68,1.68,0,1,1,1.46,3C1521.91,1060,1477.77,1065.17,1421.42,1065.17Z" transform="translate(-170 -282.54)"/>
    <path class="b" d="M1417.87,1036.06c-51.93,0-104.13-4.81-122.95-13.18a1.68,1.68,0,1,1,1.36-3.07c29.56,13.13,143.18,17.32,206.06,7.59a1.68,1.68,0,1,1,.51,3.32C1479.3,1034.37,1448.63,1036.06,1417.87,1036.06Z" transform="translate(-170 -282.54)"/>
    <path class="b" d="M1492.55,713.81h-.18a1.68,1.68,0,0,1-1.49-1.85,309,309,0,0,1,5.63-34.56,1.68,1.68,0,0,1,3.27.75,305.16,305.16,0,0,0-5.56,34.18A1.68,1.68,0,0,1,1492.55,713.81Z" transform="translate(-170 -282.54)"/>
    <path class="b" d="M1412,706.31a1.68,1.68,0,0,1-1.63-2.08l.79-3.23c2.11-8.66,5-20.51,7.88-29.89a1.68,1.68,0,1,1,3.21,1c-2.84,9.28-5.73,21.08-7.83,29.7l-.79,3.23A1.68,1.68,0,0,1,1412,706.31Z" transform="translate(-170 -282.54)"/>
    <path class="b" d="M1498.15,679.44a1.7,1.7,0,0,1-.38,0,1.68,1.68,0,0,1-1.25-2c4.22-18.06,7.35-29.55,18.21-37.73,28.15-21.23,34.19-30.05,28.1-41.08a11.61,11.61,0,0,0-8.5-5.56c-6.71-1.17-15.06,1.61-21.27,7.07a1.68,1.68,0,0,1-2.22-2.52c7.05-6.2,16.27-9.21,24.06-7.86a14.9,14.9,0,0,1,10.86,7.25c7.9,14.29-2.08,25.08-29,45.38-9.45,7.12-12.42,16.38-17,35.81A1.68,1.68,0,0,1,1498.15,679.44Z" transform="translate(-170 -282.54)"/>
    <path class="b" d="M1519.25,609.39a1.68,1.68,0,0,1-1.08-3c4.58-3.85,12.88-6.35,19.26-3.41a1.68,1.68,0,1,1-1.41,3c-4.94-2.27-11.86-.3-15.7,2.93A1.67,1.67,0,0,1,1519.25,609.39Z" transform="translate(-170 -282.54)"/>
    <path class="b" d="M1530.37,612.33a1.68,1.68,0,0,1-1.56-1.05c-.26-.63-.5-1.32-.75-2a14.94,14.94,0,0,0-2-4.35,1.68,1.68,0,1,1,2.56-2.17,17,17,0,0,1,2.62,5.41c.23.65.45,1.29.69,1.88a1.68,1.68,0,0,1-1.56,2.31Z" transform="translate(-170 -282.54)"/>
    <path class="b" d="M1443.56,676.76h-.13c-10.5-.8-35.08-2.66-48.91-19.35-8.35-10.08-11.6-24-9.66-41.46,2.75-24.69,4.74-42.53,10-70.11a1.68,1.68,0,0,1,3.3.63c-5.2,27.46-7.18,45.25-9.93,69.86-1.84,16.49,1.16,29.59,8.91,38.94,12.92,15.59,35.65,17.31,46.57,18.14a1.68,1.68,0,0,1-.12,3.35Z" transform="translate(-170 -282.54)"/>
    <path class="b" d="M1430.54,632.6c-3.81,0-6-.77-7.16-2.46-1.68-2.54-.12-5.9,1.86-10.16l.74-1.6c1.5-3.3,2.54-5.78,4.42-10.29l.45-1.08a1.68,1.68,0,0,1,3.1,1.3l-.45,1.08c-1.9,4.53-2.94,7-4.46,10.38l-.75,1.63c-1.29,2.78-2.75,5.92-2.11,6.9.17.26,1,1.08,5.27.94a1.68,1.68,0,1,1,.11,3.36Z" transform="translate(-170 -282.54)"/>
    <path class="b" d="M1434.81,649.25a1.68,1.68,0,0,1-.29-3.33l4.4-.78c4.86-.87,8.7-1.55,13.15-2.15a1.68,1.68,0,0,1,.44,3.33c-4.38.58-8.18,1.26-13,2.12l-4.41.78Z" transform="translate(-170 -282.54)"/>
    <path class="b" d="M1539.81,1037.49a1.68,1.68,0,0,1-.07-3.36,71.75,71.75,0,0,0,63-43.71,1.68,1.68,0,0,1,3.1,1.3,75.12,75.12,0,0,1-66,45.76Z" transform="translate(-170 -282.54)"/>
    <path class="b" d="M1536.93,1037.55a75.22,75.22,0,0,1-20.55-2.88c-49.95-14.16-95.52-26.93-128.8-36.26l-30.25-8.48a1.68,1.68,0,0,1,.91-3.23l30.25,8.48c33.28,9.32,78.85,22.1,128.8,36.26a71.73,71.73,0,0,0,22.45,2.7,1.68,1.68,0,0,1,.13,3.36Q1538.4,1037.55,1536.93,1037.55Z" transform="translate(-170 -282.54)"/>
    <path class="b" d="M1288.07,932.64a1.68,1.68,0,0,1-.35-3.32c40.25-8.56,135.71-25.29,171.44-29.55a1.68,1.68,0,0,1,.4,3.33c-35.65,4.26-130.95,21-171.14,29.5A1.7,1.7,0,0,1,1288.07,932.64Z" transform="translate(-170 -282.54)"/>
    <path class="b" d="M1388.22,1035.55l-.29,0a1.68,1.68,0,0,1-1.36-1.95c1.64-9.24,3.69-21.12,6.12-35.3a1.68,1.68,0,0,1,3.31.57c-2.42,14.19-4.48,26.07-6.12,35.32A1.68,1.68,0,0,1,1388.22,1035.55Z" transform="translate(-170 -282.54)"/>
    <path class="b" d="M1409.53,910l-.28,0a1.68,1.68,0,0,1-1.38-1.93c4.1-24.61,8.27-49.74,12.18-73.3,7-41.94,13-78.16,16.46-98.6a1.68,1.68,0,1,1,3.31.56c-3.49,20.43-9.5,56.65-16.46,98.58-3.91,23.56-8.08,48.69-12.19,73.3A1.68,1.68,0,0,1,1409.53,910Z" transform="translate(-170 -282.54)"/>
    <path class="b" d="M1378.6,1660.51a1.68,1.68,0,0,1-1.66-1.42c-25.83-166.33-78.89-565.63-83.49-607.65a1.68,1.68,0,0,1,3.34-.37c4.61,42,57.65,441.2,83.47,607.5a1.68,1.68,0,0,1-1.4,1.92Z" transform="translate(-170 -282.54)"/>
    <path class="b" d="M1555.25,1660.51a1.68,1.68,0,0,1-1.62-1.25c-1-3.87-3.35-12.49-6.68-24.86-26.21-97.53-106-394.31-127.37-485a1.68,1.68,0,1,1,3.27-.77c21.37,90.64,101.13,387.39,127.34,484.91,3.33,12.37,5.64,21,6.68,24.87a1.68,1.68,0,0,1-1.62,2.11Z" transform="translate(-170 -282.54)"/>
    <path class="b" d="M1646.16,1660.51a1.68,1.68,0,0,1-1.5-.91c-9.26-18-61.6-335.69-89.72-506.34-8.84-53.66-15.23-92.42-17.21-103.27a1.68,1.68,0,1,1,3.3-.6c2,10.87,8.37,49.65,17.22,103.32,28.09,170.47,80.38,487.78,89.4,505.35a1.68,1.68,0,0,1-1.49,2.45Z" transform="translate(-170 -282.54)"/>
    <path class="b" d="M1469.51,1660.51H1378.6a1.68,1.68,0,1,1,0-3.36h90.91a1.68,1.68,0,1,1,0,3.36Z" transform="translate(-170 -282.54)"/>
    <path class="b" d="M1646.16,1660.51h-90.91a1.68,1.68,0,1,1,0-3.36h90.91a1.68,1.68,0,0,1,0,3.36Z" transform="translate(-170 -282.54)"/>
    <path class="b" d="M1469.5,1660.51a1.68,1.68,0,0,1-1.67-1.53l-42.15-484.68a1.68,1.68,0,1,1,3.35-.29l42.15,484.68a1.68,1.68,0,0,1-1.53,1.82Z" transform="translate(-170 -282.54)"/>
    <path class="b" d="M1539.39,1051.37a1.68,1.68,0,0,1-1.68-1.68c0-5.1.13-9.4.43-13.93a1.7,1.7,0,0,1,1.79-1.57,1.68,1.68,0,0,1,1.57,1.79c-.29,4.45-.42,8.68-.42,13.71A1.68,1.68,0,0,1,1539.39,1051.37Z" transform="translate(-170 -282.54)"/>
    <path class="b" d="M1295.11,1052.94a1.68,1.68,0,0,1-1.67-1.53,152.7,152.7,0,0,1,.6-30.22,1.68,1.68,0,1,1,3.33.42,149.18,149.18,0,0,0-.59,29.51,1.68,1.68,0,0,1-1.52,1.82Z" transform="translate(-170 -282.54)"/>
    <path class="b" d="M1537.57,1092.52a39.75,39.75,0,0,1-23.87-7.5,37.65,37.65,0,0,1-15.07-25.65,1.68,1.68,0,1,1,3.33-.45,34.33,34.33,0,0,0,13.73,23.39c8.23,6,18.68,8.13,30.23,6.1a1.68,1.68,0,1,1,.58,3.31A51.71,51.71,0,0,1,1537.57,1092.52Z" transform="translate(-170 -282.54)"/>
    <circle class="b" cx="1240.33" cy="313.29" r="4.77"/>
    <circle class="b" cx="1290.02" cy="321.19" r="4.77"/>
    <path class="b" d="M1473.38,585.82a2.81,2.81,0,0,1-.66-.08l-14.61-3.51a2.8,2.8,0,0,1,1.31-5.44L1474,580.3a2.8,2.8,0,0,1-.65,5.52Z" transform="translate(-170 -282.54)"/>
    <path class="b" d="M1417.11,576.35l-.4,0-13.56-1.94a2.8,2.8,0,1,1,.79-5.54l13.56,1.94a2.8,2.8,0,0,1-.39,5.57Z" transform="translate(-170 -282.54)"/>
    <path class="b" d="M1273.36,1010.76a1.68,1.68,0,0,1-.42-3.31l169.42-43.85a1.68,1.68,0,1,1,.84,3.25l-169.42,43.85A1.7,1.7,0,0,1,1273.36,1010.76Z" transform="translate(-170 -282.54)"/>
    <path class="b" d="M1442.78,966.91a1.68,1.68,0,0,1-.42-3.31l42.84-11.09a1.68,1.68,0,1,1,.84,3.25l-42.84,11.09A1.68,1.68,0,0,1,1442.78,966.91Z" transform="translate(-170 -282.54)"/>
    <g>
      <g>
        <polygon class="a" points="1244.6 409.36 1222.34 424.82 1237.94 478.82 1267.64 453.88 1244.6 409.36"/>
        <path class="b" d="M1407.94,763a1.68,1.68,0,0,1-1.61-1.21l-15.6-54a1.68,1.68,0,0,1,.66-1.85l22.25-15.46a1.68,1.68,0,0,1,2.45.61l23,44.52a1.68,1.68,0,0,1-.41,2.06L1409,762.65A1.68,1.68,0,0,1,1407.94,763Zm-13.65-55,14.55,50.36L1435.53,736,1414,694.37Z" transform="translate(-170 -282.54)"/>
      </g>
      <g>
        <polygon class="a" points="1324.13 417.09 1340.22 437.7 1285.55 486.12 1267.65 453.88 1324.13 417.09"/>
        <path class="b" d="M1455.55,770.34l-.28,0a1.68,1.68,0,0,1-1.18-.84l-17.9-32.24a1.68,1.68,0,0,1,.55-2.22l56.48-36.79a1.68,1.68,0,0,1,2.24.37l16.08,20.61a1.68,1.68,0,0,1-.21,2.29l-54.67,48.42A1.68,1.68,0,0,1,1455.55,770.34ZM1439.88,737,1456,766l51.92-46-14.16-18.15Z" transform="translate(-170 -282.54)"/>
      </g>
    </g>
    <path class="b" d="M1516.77,897.06h-.07a1.68,1.68,0,0,1-1.61-1.75l.2-4.89c.24-5.82.37-9,.93-19.2a1.72,1.72,0,0,1,1.77-1.58,1.68,1.68,0,0,1,1.58,1.77c-.56,10.15-.69,13.35-.93,19.15l-.2,4.89A1.68,1.68,0,0,1,1516.77,897.06Z" transform="translate(-170 -282.54)"/>
    <path class="b" d="M1485.62,955.82a1.68,1.68,0,0,1-.14-3.35c6-.5,12.64-.4,19-.31,10,.14,20.26.29,22.83-2.24a1.43,1.43,0,0,0,.47-1.1c0-4.27-9.25-4.94-16.68-5.47a69.11,69.11,0,0,1-10.06-1.17,1.68,1.68,0,1,1,.77-3.27,67.29,67.29,0,0,0,9.53,1.09c9.28.67,19.8,1.42,19.8,8.82a4.81,4.81,0,0,1-1.47,3.5c-3.57,3.52-13.13,3.39-25.24,3.21-6.33-.09-12.87-.19-18.72.3Z" transform="translate(-170 -282.54)"/>
    <path class="b" d="M1523.79,924.17a1.68,1.68,0,0,1-.25-3.34c8.88-1.37,15.07-4.5,15.07-6.45a2.17,2.17,0,0,0-.9-1.83c-4.08-3.26-18.91-2-44.07,3.69a1.68,1.68,0,0,1-.74-3.28c27.31-6.2,41.78-7.14,46.91-3a5.54,5.54,0,0,1,2.16,4.45c0,6.67-14.92,9.31-17.91,9.77Z" transform="translate(-170 -282.54)"/>
    <path class="b" d="M1515.5,912a1.68,1.68,0,0,1-.37-3.32c9.58-2.19,14.61-5.74,15.35-8.28a1.94,1.94,0,0,0-.61-2.08c-.66-.67-4.79-1.77-13.32-.91a1.68,1.68,0,1,1-.34-3.34c3-.3,13.12-1.07,16,1.89a5.29,5.29,0,0,1,1.45,5.38c-1.3,4.46-7.79,8.33-17.83,10.62A1.68,1.68,0,0,1,1515.5,912Z" transform="translate(-170 -282.54)"/>
    <path class="b" d="M1501.48,942.22a1.68,1.68,0,0,1-.2-3.35c16.36-2,34.38-7.37,34-11.67a1.77,1.77,0,0,0-.82-1.31c-2.22-1.7-8.15-2.23-13.79-1.22a213.54,213.54,0,0,0-22.32,5.2,1.68,1.68,0,0,1-1-3.21,216.7,216.7,0,0,1,22.71-5.29c5.65-1,12.93-.83,16.43,1.86a5.15,5.15,0,0,1,2.12,3.69c.9,10.62-35.41,15.1-37,15.29Z" transform="translate(-170 -282.54)"/>
    <path class="b" d="M1458.17,903.25a1.68,1.68,0,0,1-.2-3.35l4-.49c30.83-3.82,35.57-4.4,55.38-5.52a1.68,1.68,0,0,1,.19,3.35c-19.7,1.11-23.73,1.61-55.15,5.5l-4,.49Z" transform="translate(-170 -282.54)"/>
    <g>
      <g>
        <path class="a" d="M1359.29,809.49l13.41,2.36h0l19.34,3.4-6.57,38a17.77,17.77,0,0,1-20.29,14.53l-18.75-3a17.78,17.78,0,0,1-14.78-20.35l6.34-38.77Z" transform="translate(-170 -282.54)"/>
        <polygon class="a" points="1206.96 508.42 1202.7 529.31 1189.29 526.95 1193.47 506.49 1206.96 508.42"/>
        <polygon class="a" points="1201.89 495.88 1206.96 508.42 1193.47 506.49 1201.89 495.88"/>
      </g>
      <path class="b" d="M1367.94,869.74a19.29,19.29,0,0,1-3-.24l-18.75-3A19.46,19.46,0,0,1,1330,844.24l6.33-38.77a1.68,1.68,0,0,1,1.95-1.38l54.06,9.53a1.68,1.68,0,0,1,1.36,1.94l-6.57,38A19.56,19.56,0,0,1,1367.94,869.74Zm-28.57-62-6.05,37.09a16.1,16.1,0,0,0,13.38,18.43l18.75,3A16.16,16.16,0,0,0,1383.82,853l6.28-36.39Z" transform="translate(-170 -282.54)"/>
      <path class="b" d="M1372.7,813.54a1.71,1.71,0,0,1-.34,0,1.68,1.68,0,0,1-1.31-2l4.16-20.4-3.8-9.4-6.38,8-4.1,20.07a1.68,1.68,0,0,1-3.29-.67l4.18-20.46a1.68,1.68,0,0,1,.33-.71l8.42-10.62a1.68,1.68,0,0,1,2.87.41l5.07,12.55a1.68,1.68,0,0,1,.09,1l-4.26,20.9A1.68,1.68,0,0,1,1372.7,813.54Z" transform="translate(-170 -282.54)"/>
      <path class="b" d="M1377,792.64l-.24,0-13.49-1.93a1.68,1.68,0,1,1,.47-3.32l13.49,1.93a1.68,1.68,0,0,1-.24,3.34Z" transform="translate(-170 -282.54)"/>
    </g>
    <path class="b" d="M1501.67,665.65a1.68,1.68,0,0,1-.27-3.34c16.94-2.82,25.21-24.45,28.33-32.59.33-.85.6-1.57.83-2.13a1.68,1.68,0,1,1,3.11,1.28c-.22.54-.49,1.23-.8,2.06-3.3,8.63-12.08,31.56-30.91,34.7Z" transform="translate(-170 -282.54)"/>
    <path class="b" d="M1545.84,602.9a1.68,1.68,0,0,1-1.49-2.45c20.39-39.57,12.94-77.94-18.54-95.48-37.6-21-85.36-25.62-121.67-11.89-14.34,5.42-22.64,19.89-22.2,38.71.13,5.38,2.56,25.62,12.2,26.42a1.68,1.68,0,1,1-.28,3.35c-12-1-15.1-21.77-15.28-29.69-.47-20.31,8.64-36,24.37-41.93,37.19-14.06,86.06-9.31,124.49,12.1,33.18,18.49,41.17,58.66,19.9,100A1.68,1.68,0,0,1,1545.84,602.9Z" transform="translate(-170 -282.54)"/>
    <path class="b" d="M1389.83,1064.62a1.68,1.68,0,0,1-1.67-1.59l-1.61-29.07a1.68,1.68,0,0,1,1.58-1.77,1.7,1.7,0,0,1,1.77,1.58l1.61,29.07a1.68,1.68,0,0,1-1.58,1.77Z" transform="translate(-170 -282.54)"/>
    <circle class="b" cx="1234.83" cy="765.86" r="5.3"/>
    <path class="b" d="M1671.42,981.49a3,3,0,0,1-.65-5.93,141.4,141.4,0,0,0,15.21-4.65,3,3,0,0,1,2,5.65,144.28,144.28,0,0,1-15.94,4.86A3,3,0,0,1,1671.42,981.49Z" transform="translate(-170 -282.54)"/>
    <path class="b" d="M1734.1,952.23a3,3,0,0,1-1.75-5.44A155.28,155.28,0,0,0,1753.17,929a3,3,0,1,1,4.3,4.18,161.25,161.25,0,0,1-21.63,18.54A3,3,0,0,1,1734.1,952.23Zm51.44-64.92a3,3,0,0,1-2.75-4.19,258.88,258.88,0,0,0,9.53-26,3,3,0,0,1,5.73,1.77,264.7,264.7,0,0,1-9.76,26.57A3,3,0,0,1,1785.54,887.31Zm21.11-81-.34,0a3,3,0,0,1-2.64-3.32,265.52,265.52,0,0,0,1.7-27.62,3,3,0,0,1,3-3h0a3,3,0,0,1,3,3,271.91,271.91,0,0,1-1.74,28.24A3,3,0,0,1,1806.65,806.32Zm-105-72.69a42.65,42.65,0,0,1-6.93-.55,3,3,0,0,1,1-5.92,36.61,36.61,0,0,0,5.95.47,54.26,54.26,0,0,0,19.84-4.17,3,3,0,1,1,2.21,5.58A60.18,60.18,0,0,1,1701.69,733.63Zm99.78-10.6a3,3,0,0,1-2.88-2.18,130.31,130.31,0,0,0-10.11-25.36,3,3,0,1,1,5.29-2.82,136.19,136.19,0,0,1,10.58,26.53,3,3,0,0,1-2.88,3.83Zm-37.79-30a3,3,0,0,1-2.7-4.31,94,94,0,0,0,7.82-25.87,3,3,0,1,1,5.92,1,99.92,99.92,0,0,1-8.35,27.52A3,3,0,0,1,1763.69,693Zm-99.78-.83h-.18a3,3,0,0,1-2.82-3.17c.57-9.51,5-18.67,12.91-26.5a3,3,0,0,1,4.23,4.26c-6.82,6.77-10.67,14.59-11.15,22.6A3,3,0,0,1,1663.91,692.2ZM1753.14,657a3,3,0,0,1-1.5-.41,100.38,100.38,0,0,0-10.94-5.48,39.77,39.77,0,0,0-13.9-2.93,3,3,0,0,1,.26-6,45.72,45.72,0,0,1,16,3.41,106.43,106.43,0,0,1,11.6,5.81,3,3,0,0,1-1.51,5.59Zm19.18-46.52a3,3,0,0,1-3-2.71c-.61-6.26-1.4-12.74-2.48-20.4q-.51-3.61-1.06-7.19a3,3,0,0,1,5.93-.92q.56,3.62,1.07,7.27c1.09,7.75,1.88,14.31,2.51,20.65a3,3,0,0,1-2.69,3.28ZM1757,528.06a3,3,0,0,1-2.88-2.18c-2.58-9.07-5.47-18-8.59-26.38a3,3,0,1,1,5.63-2.08c3.17,8.57,6.12,17.6,8.74,26.82a3,3,0,0,1-2.89,3.82Zm-32.71-77a3,3,0,0,1-2.57-1.45,261.51,261.51,0,0,0-15.48-22.9A3,3,0,1,1,1711,423a267.12,267.12,0,0,1,15.84,23.43,3,3,0,0,1-2.57,4.55Zm-54.06-63.73a3,3,0,0,1-1.94-.71c-5.17-4.38-10.62-8.65-16.2-12.67q-2.89-2.08-5.81-4.12a3,3,0,1,1,3.43-4.93q3,2.06,5.89,4.17c5.71,4.12,11.28,8.48,16.57,13a3,3,0,0,1-1.94,5.29Zm-576.18-12.82a3,3,0,0,1-1.69-5.48c7.72-5.27,15.7-10.39,23.71-15.21a3,3,0,1,1,3.09,5.14c-7.91,4.76-15.79,9.82-23.43,15A3,3,0,0,1,1094.07,374.48Zm506-33a3,3,0,0,1-1.38-.34c-8.16-4.23-16.59-8.27-25.07-12a3,3,0,1,1,2.43-5.49c8.59,3.8,17.14,7.9,25.41,12.18a3,3,0,0,1-1.38,5.66Zm-433-8.18a3,3,0,0,1-1.25-5.73c8.5-3.88,17.23-7.56,25.95-11a3,3,0,1,1,2.18,5.59c-8.62,3.35-17.24,7-25.63,10.83A3,3,0,0,1,1167.14,333.29Zm355.29-23.43a3,3,0,0,1-.88-.13c-8.8-2.69-17.82-5.18-26.82-7.37a3,3,0,0,1,1.42-5.83c9.11,2.23,18.25,4.74,27.16,7.47a3,3,0,0,1-.88,5.87Zm-276.31-4.8a3,3,0,0,1-.77-5.9c9-2.39,18.24-4.56,27.41-6.45a3,3,0,1,1,1.21,5.88c-9.06,1.87-18.17,4-27.08,6.38A3,3,0,0,1,1246.11,305.06Zm194.31-12.81-.38,0c-9.15-1.17-18.47-2.1-27.69-2.76a3,3,0,1,1,.43-6c9.33.67,18.76,1.61,28,2.79a3,3,0,0,1-.38,6Zm-111.73-1.87a3,3,0,0,1-.28-6c9.31-.87,18.76-1.49,28.1-1.85a3,3,0,1,1,.23,6c-9.23.35-18.57,1-27.77,1.83Z" transform="translate(-170 -282.54)"/>
    <path class="b" d="M918.31,664.09a3,3,0,0,1-3-2.8c-.17-2.54-.26-5.19-.26-7.86a153.15,153.15,0,0,1,1.49-20.66,3,3,0,1,1,5.94.81,147.18,147.18,0,0,0-1.44,19.84c0,2.54.08,5.06.24,7.47a3,3,0,0,1-2.79,3.19Zm15.53-81.94A3,3,0,0,1,931,578.1c3.17-8.5,6.83-17.26,10.87-26a3,3,0,1,1,5.45,2.5c-4,8.65-7.57,17.27-10.7,25.64A3,3,0,0,1,933.85,582.15ZM971.08,507a3,3,0,0,1-2.55-4.57c4.89-8,10.07-15.91,15.4-23.6a3,3,0,1,1,4.93,3.42c-5.27,7.6-10.39,15.44-15.22,23.32A3,3,0,0,1,971.08,507Zm49.81-67.54a3,3,0,0,1-2.24-5c6.39-7.21,12.93-14.09,19.44-20.45a3,3,0,0,1,4.19,4.29c-6.4,6.26-12.84,13-19.14,20.14A3,3,0,0,1,1020.89,439.46Z" transform="translate(-170 -282.54)"/>
    <g>
      <path class="b" d="M1288.07,932.62a1.67,1.67,0,0,1-.87-.25c-3-1.81-7.17-4.38-11.25-6.84s-6.22-5.81-5.69-8.92c.47-2.7,2.77-4.66,6.32-5.39s9.32,1.46,18.43,7.12a1.68,1.68,0,1,1-1.77,2.85c-8-5-13.38-7.22-16-6.68-2.12.43-3.46,1.4-3.68,2.67s.74,3.43,4.11,5.48c4.08,2.47,8.3,5,11.27,6.85a1.68,1.68,0,0,1-.88,3.11Z" transform="translate(-170 -282.54)"/>
      <path class="b" d="M1365.66,917.87a1.67,1.67,0,0,1-1-.34c-21.32-16.24-57.18-39.74-68.49-37.94a3.29,3.29,0,0,0-2.35,1.27,2.64,2.64,0,0,0-.45,2.33c1.23,4.57,12.05,9.65,16.67,11.82l2,.93a1.68,1.68,0,1,1-1.49,3l-1.89-.9c-5.89-2.76-16.85-7.91-18.49-14A6,6,0,0,1,1291,879a6.54,6.54,0,0,1,4.58-2.68c16.67-2.65,68.84,36.9,71.05,38.58a1.68,1.68,0,0,1-1,3Z" transform="translate(-170 -282.54)"/>
      <path class="b" d="M1301,910.43a1.67,1.67,0,0,1-.92-.28c-4-2.67-7.62-4.49-18.22-9.91l-5.51-2.82c-6.54-3.35-7.8-8.42-6.2-11.71,1.9-3.9,8-6.23,16.88-2.12,13.79,6.36,22.06,10.57,35.38,18a1.68,1.68,0,1,1-1.64,2.93c-13.24-7.4-21.45-11.58-35.15-17.89-6.54-3-11.22-2-12.46.54-.91,1.87.18,4.93,4.71,7.26l5.51,2.82c10.72,5.48,14.33,7.33,18.54,10.1a1.68,1.68,0,0,1-.93,3.08Z" transform="translate(-170 -282.54)"/>
      <path class="b" d="M1289.44,918.68a1.67,1.67,0,0,1-.8-.2c-1-.55-2.31-1.21-3.69-1.9-8.32-4.18-19.7-9.91-16.84-16.26a6.42,6.42,0,0,1,4.26-3.6c9.74-2.76,31.57,11.94,31.79,12.09a1.68,1.68,0,1,1-1.88,2.78c-5.36-3.63-22.18-13.57-29-11.64a3,3,0,0,0-2.11,1.74c-1.54,3.41,9.83,9.13,15.29,11.88,1.4.7,2.72,1.37,3.78,1.95a1.68,1.68,0,0,1-.8,3.15Z" transform="translate(-170 -282.54)"/>
    </g>
    <path class="b" d="M1081.92,666.75a3,3,0,0,1-3-2.83,235.69,235.69,0,0,0-2.55-23.58,3,3,0,0,1,5.93-.94,241.66,241.66,0,0,1,2.61,24.18,3,3,0,0,1-2.82,3.17Zm-17.47-77.69a3,3,0,0,1-2.79-1.9c-3.33-8.42-7.18-16.9-11.45-25.21a3,3,0,0,1,5.34-2.74c4.36,8.48,8.29,17.14,11.69,25.74a3,3,0,0,1-2.79,4.11Zm-41.36-72.79a3,3,0,0,1-2.4-1.2c-5.45-7.27-11.34-14.53-17.49-21.57a3,3,0,0,1,4.52-3.94c6.25,7.16,12.22,14.53,17.76,21.92a3,3,0,0,1-2.4,4.8Zm-57.15-61.34a3,3,0,0,1-2-.75c-6.87-6.05-14.07-12-21.4-17.75a3,3,0,1,1,3.69-4.73c7.43,5.8,14.72,11.85,21.68,18a3,3,0,0,1-2,5.25Z" transform="translate(-170 -282.54)"/>
    <path class="b" d="M370.7,1049.89l-.37,0a207.23,207.23,0,0,1-27.87-5.37,3,3,0,1,1,1.54-5.8,201.37,201.37,0,0,0,27.06,5.22,3,3,0,0,1-.36,6Zm-79-26.71a3,3,0,0,1-1.5-.41A224,224,0,0,1,266.67,1007a3,3,0,1,1,3.65-4.76,217.71,217.71,0,0,0,22.9,15.35,3,3,0,0,1-1.51,5.59Zm-63.07-54.63a3,3,0,0,1-2.34-1.12,247.89,247.89,0,0,1-16.42-23.06,3,3,0,1,1,5.08-3.2,242,242,0,0,0,16,22.5,3,3,0,0,1-2.34,4.88ZM188.1,895.48a3,3,0,0,1-2.83-2,264.34,264.34,0,0,1-8-27.14,3,3,0,1,1,5.84-1.39,258.4,258.4,0,0,0,7.82,26.52,3,3,0,0,1-2.83,4Zm-15-82.24a3,3,0,0,1-3-2.93c-.05-2.2-.08-4.43-.08-6.62,0-7.21.29-14.5.85-21.65a3,3,0,1,1,6,.47c-.55,7-.83,14.12-.83,21.17,0,2.14,0,4.32.08,6.48a3,3,0,0,1-2.93,3.07Zm11-82.89a3,3,0,0,1-2.88-3.86,261.92,261.92,0,0,1,9.55-26.66,3,3,0,0,1,5.53,2.33,256,256,0,0,0-9.33,26A3,3,0,0,1,184,730.36Zm170.44-31.48a3,3,0,0,1-.59-.06c-8.87-1.77-17.93-6.16-26.21-12.71a3,3,0,1,1,3.72-4.71c7.54,6,15.72,9.94,23.66,11.53a3,3,0,0,1-.58,5.94ZM401,675.52a3,3,0,0,1-2.66-4.38A47.57,47.57,0,0,0,403.5,649c0-1.13,0-2.28-.1-3.43a3,3,0,0,1,6-.36c.08,1.27.11,2.55.11,3.79a53.5,53.5,0,0,1-5.8,24.89A3,3,0,0,1,401,675.52ZM220.74,655.24a3,3,0,0,1-2.43-4.75,244.14,244.14,0,0,1,17.82-22,3,3,0,1,1,4.43,4A238,238,0,0,0,223.18,654,3,3,0,0,1,220.74,655.24ZM298.56,641a3,3,0,0,1-2.84-2,118,118,0,0,1-5.83-28,3,3,0,1,1,6-.5,111.93,111.93,0,0,0,5.53,26.62,3,3,0,0,1-2.84,4Zm84.29-42.1a3,3,0,0,1-2.09-.85,71.09,71.09,0,0,0-22.2-14.83,3,3,0,1,1,2.32-5.53,77.05,77.05,0,0,1,24.07,16.07,3,3,0,0,1-2.09,5.15Zm-102.18-1.88a3,3,0,0,1-1.66-5.5c5.14-3.41,10.47-6.64,15.85-9.59a99.74,99.74,0,0,1,9.22-4.13,3,3,0,0,1,2.16,5.6,93.65,93.65,0,0,0-8.59,3.84c-5.14,2.82-10.33,6-15.33,9.28A3,3,0,0,1,280.67,597.07Zm19.39-38.49a3,3,0,0,1-2.87-3.87,207.55,207.55,0,0,1,10.05-26.5,3,3,0,1,1,5.45,2.5,201.65,201.65,0,0,0-9.76,25.73A3,3,0,0,1,300.06,558.58Zm39.46-73.43a3,3,0,0,1-2.33-4.88,267.31,267.31,0,0,1,18.92-21,3,3,0,1,1,4.24,4.24A261.09,261.09,0,0,0,341.86,484,3,3,0,0,1,339.52,485.15Zm61.72-56.48a3,3,0,0,1-1.71-5.47c7.56-5.25,15.56-10.35,23.78-15.18a3,3,0,0,1,3,5.17c-8.09,4.75-16,9.78-23.39,14.94A3,3,0,0,1,401.24,428.67Zm506.44-25a3,3,0,0,1-1.46-.38c-8-4.48-16.35-8.76-24.71-12.73a3,3,0,0,1,2.58-5.42c8.47,4,16.89,8.37,25,12.91a3,3,0,0,1-1.46,5.62ZM474.86,388.58a3,3,0,0,1-1.17-5.76c8.51-3.6,17.34-7,26.25-10.21a3,3,0,1,1,2,5.65c-8.8,3.14-17.52,6.53-25.93,10.08A3,3,0,0,1,474.86,388.58Zm356-18.48a3,3,0,0,1-.94-.15c-8.75-2.88-17.72-5.53-26.66-7.88a3,3,0,1,1,1.52-5.8c9.07,2.38,18.16,5.06,27,8a3,3,0,0,1-.94,5.85Zm-276.3-7.57a3,3,0,0,1-.7-5.92c9-2.17,18.3-4.15,27.51-5.87a3,3,0,1,1,1.11,5.9c-9.12,1.71-18.28,3.66-27.22,5.81A3,3,0,0,1,554.57,362.54ZM749.15,351.3l-.41,0c-9.13-1.24-18.43-2.22-27.66-2.92a3,3,0,0,1,.45-6c9.34.71,18.77,1.7,28,3a3,3,0,0,1-.4,6ZM637.4,349.11a3,3,0,0,1-.26-6c9.34-.81,18.79-1.39,28.1-1.73a3,3,0,1,1,.22,6c-9.21.34-18.56.91-27.8,1.71Z" transform="translate(-170 -282.54)"/>
  </g>
</svg>
