<svg xmlns="http://www.w3.org/2000/svg" width="1333.16" height="1542.27" viewBox="0 0 1333.16 1542.27">
  <defs>
    <style>
      .a {
        fill: #ffe05c;
      }

      .b {
        fill: #ffd063;
      }

      .c {
        fill: #8fcadc;
      }

      .d {
        fill: #8dbbd9;
      }

      .e {
        fill: #fff280;
      }

      .f {
        fill: #9cdcf0;
      }

      .g {
        fill: #fff;
      }
    </style>
  </defs>
  <title>95</title>
  <g>
    <path class="a" d="M1305.77,342.1A127.2,127.2,0,0,0,1180,233.71H780.84A127.18,127.18,0,0,0,653.66,360.89v17a126.74,126.74,0,0,0,36.32,89c-257.13,41.24-355.13,215.28-352.3,405.63,2.61,175.45,106.58,335.14,260.3,406.42,2.74-13.55,14.18-31.12,17.07-44.67-135.25-66.59-228.28-205.34-228.28-365.76,0-197.25,114.57-352.53,387.78-363.4,0-.05,0-.11,0-.16,2.08.1,4.17.16,6.27.16H1180a127.19,127.19,0,0,0,125.46-106.36c84.44,60.37,129,164.51,129,274.95,0,219-229.67,347.17-417.24,347.17a345.63,345.63,0,0,1-55-4.41c-8.76,14.67-21.76,25-31,39.38a393.7,393.7,0,0,0,81.85,8.58c214.35,0,464-135.93,470-390.72C1486.19,537.66,1418.64,408.18,1305.77,342.1Z" transform="translate(-333.42 -228.87)"/>
    <path class="b" d="M615.05,1234.23a367.48,367.48,0,0,1-96.2-60.77,388.62,388.62,0,0,1-74.35-86.94,383.57,383.57,0,0,1-45.64-104.9,365.07,365.07,0,0,1-12.08-113.14,462.91,462.91,0,0,0,19.36,111.06,430.33,430.33,0,0,0,46.58,101.84,436,436,0,0,0,71.18,86.49A465.41,465.41,0,0,0,615.05,1234.23Z" transform="translate(-333.42 -228.87)"/>
    <path class="b" d="M598,1278.9c2.74-13.55,14.18-31.12,17.07-44.67A410.86,410.86,0,0,1,490.83,1140a279.85,279.85,0,0,0-18.15,51A438.51,438.51,0,0,0,598,1278.9Z" transform="translate(-333.42 -228.87)"/>
    <path class="c" d="M1145.53,1111.22H603.28a58.67,58.67,0,0,0-58.68,58.68v329.62l-109.84,49.2c-8.05,3.61-5.48,15.64,3.34,15.64h707.43a57.87,57.87,0,0,0,19-3.19,53.37,53.37,0,0,0,8-3.42,58.64,58.64,0,0,0,31.6-52.07V1169.9A58.67,58.67,0,0,0,1145.53,1111.22Z" transform="translate(-333.42 -228.87)"/>
    <path class="d" d="M438.1,1564.36c59-2,117.9-3.06,176.86-3.77,29.48-.45,59-.55,88.43-.81l88.43-.27,88.43.25,44.21.34,22.11.18,22.11.28c59,.71,117.9,1.76,176.86,3.78-59,2-117.9,3.07-176.86,3.78l-22.11.28-22.11.18-44.21.34-88.43.25-88.43-.27c-29.48-.26-59-.36-88.43-.81C556,1567.42,497.06,1566.37,438.1,1564.36Z" transform="translate(-333.42 -228.87)"/>
    <path class="e" d="M627.59,480.24c-29.94,9.38-59.13,21-86.73,35.51-13.7,7.44-27.23,15.21-39.93,24.19l-4.81,3.3-1.2.82-1.16.88-2.33,1.75-9.33,7c-3,2.42-6,4.92-9,7.37-1.49,1.24-3,2.45-4.48,3.71l-4.32,3.9a345.79,345.79,0,0,0-32.53,33.17c-2.48,3-5,5.9-7.46,8.9L417.22,620l-1.76,2.3c-.58.77-1.11,1.58-1.67,2.37l-3.31,4.77-3.31,4.76c-1.13,1.57-2.09,3.26-3.14,4.88a347.67,347.67,0,0,0-22.57,40.52,358,358,0,0,0-17.2,43.11,391.92,391.92,0,0,0-12.16,44.85,446.73,446.73,0,0,0-7.26,46c-.39,3.86-.83,7.72-1.18,11.59l-.82,11.63c-.33,3.87-.39,7.76-.56,11.65s-.36,7.77-.34,11.66l-.09,11.67.24,11.65.05,2.91.14,2.91.29,5.82.3,5.82.47,5.81a452,452,0,0,0,6,46.28q4.14,23,10.56,45.54a460.68,460.68,0,0,0,15,44.39l2.12,5.47,2.28,5.41c1.53,3.6,3,7.23,4.67,10.77s3.17,7.17,4.88,10.69l5.15,10.58-5.8-10.24c-1.94-3.42-3.69-6.93-5.55-10.39s-3.52-7-5.24-10.56l-2.57-5.31-2.41-5.38c-3.3-7.14-6.21-14.46-9.11-21.78L359.14,1011l-3.81-11.19q-7.26-22.51-12.24-45.71a451.39,451.39,0,0,1-9.65-94.19c-.08-4,.09-7.9.17-11.86s.12-7.91.4-11.86l.67-11.85c.3-3.94.69-7.88,1-11.83a429.54,429.54,0,0,1,7.11-47,397.68,397.68,0,0,1,12.23-46,367.53,367.53,0,0,1,17.86-44.13c.86-1.79,1.66-3.61,2.57-5.37l2.77-5.28,2.77-5.28,1.39-2.64,1.5-2.58,6-10.3c2.09-3.38,4.31-6.68,6.46-10,1.11-1.65,2.12-3.36,3.3-5l3.47-4.84,3.47-4.84c.58-.8,1.14-1.62,1.75-2.41l1.84-2.34,7.38-9.35c2.55-3,5.19-6,7.78-9,1.32-1.48,2.56-3,3.94-4.46l4.11-4.31,4.11-4.31,2.05-2.15,2.16-2.05,8.64-8.18c1.41-1.4,3-2.63,4.45-3.94l4.5-3.88,4.5-3.88c1.54-1.25,3.11-2.45,4.67-3.68,3.13-2.43,6.22-4.91,9.37-7.3,6.49-4.54,12.79-9.34,19.56-13.44a393,393,0,0,1,41.3-23.16A455.26,455.26,0,0,1,627.59,480.24Z" transform="translate(-333.42 -228.87)"/>
    <path class="e" d="M1284,287.71a131.08,131.08,0,0,0-32.6-30.44,145.13,145.13,0,0,0-19.58-10.5,138.09,138.09,0,0,0-21-6.86,135.55,135.55,0,0,0-21.83-3.08c-.91-.09-1.83-.1-2.75-.11l-2.75,0c-1.84,0-3.65-.07-5.55,0l-11.26.2c-15,.27-30,.4-45,.61-30,.45-60.06.55-90.09.81l-90.09.27-90.09-.25-45-.34-22.52-.18-2.82,0-2.73,0c-1.82,0-3.64,0-5.45.15s-3.64.18-5.45.39l-5.43.63a125.48,125.48,0,0,0-75.8,40.78,126.09,126.09,0,0,0-29.7,58.89,130.82,130.82,0,0,0-2.73,22.27,131.56,131.56,0,0,1,1.29-22.53A127.65,127.65,0,0,1,717.4,247a129.76,129.76,0,0,1,43.34-15.55l5.74-.81c1.92-.27,3.85-.37,5.77-.56s3.86-.22,5.79-.31l2.9-.1,2.82,0,22.52-.18,45-.34,90.09-.25,90.09.27c30,.26,60.06.36,90.09.81,15,.21,30,.33,45,.61l11.26.2c1.86,0,3.79.12,5.71.21l2.87.14c1,0,1.92.09,2.87.21l5.72.63c1,.08,1.9.26,2.84.42l2.83.49,2.83.49c.94.16,1.87.43,2.8.63,1.86.45,3.73.87,5.58,1.35a142.26,142.26,0,0,1,21.42,8,137.44,137.44,0,0,1,19.55,11.7A124.82,124.82,0,0,1,1284,287.71Z" transform="translate(-333.42 -228.87)"/>
    <path class="b" d="M1434.46,673.66c0,219-229.67,347.17-417.24,347.17a345.65,345.65,0,0,1-55-4.41c-8.76,14.67-21.76,25-31,39.38a393.71,393.71,0,0,0,81.85,8.58c214.35,0,464-135.93,470-390.72a392.4,392.4,0,0,0-32.3-165.39c-17.17,1.12-34.34,2.56-51.6,3.85C1422.46,560.8,1434.46,616.38,1434.46,673.66Z" transform="translate(-333.42 -228.87)"/>
    <path class="c" d="M1629.87,579.34A34.88,34.88,0,0,0,1595,544.46H1334.38a34.87,34.87,0,0,0-34.86,34.88V869.41a34.87,34.87,0,0,0,34.86,34.88H1551c-15.37,46.81-41,127.49-56.71,185.61-10.52,39-11.12,69.8-11.12,69.8l26.1-33.9,116.29-239.52h0a34.72,34.72,0,0,0,4.35-16.87Z" transform="translate(-333.42 -228.87)"/>
    <path class="d" d="M1334.38,904.29c18-1.13,36.1-1.78,54.15-2.47l27.07-.83,27.07-.6c9-.23,18-.31,27.07-.44l27.07-.33q27.07-.2,54.15-.16h0a4.82,4.82,0,0,1,4.8,4.83,5,5,0,0,1-.24,1.5l-7.6,23-3.79,11.51-3.84,11.5-15.29,46-30.77,92.05c3.25-15.88,7.09-31.62,11.07-47.32s8.24-31.33,12.71-46.89c2.23-7.78,4.41-15.58,6.74-23.33l7-23.25q3.5-11.63,7.18-23.2c2.42-7.72,4.91-15.43,7.42-23.12l4.58,6.33q-27.07.07-54.15-.16l-27.07-.33c-9-.13-18-.2-27.07-.44l-27.07-.6-27.07-.83C1370.48,906.07,1352.43,905.42,1334.38,904.29Z" transform="translate(-333.42 -228.87)"/>
    <path class="f" d="M1595,544.46c-39.13,2-78.27,3.06-117.4,3.77s-78.27,1.09-117.4,1.08l-14.68,0h-11l-3.18.14a29.84,29.84,0,0,0-12,3.81,31.22,31.22,0,0,0-9.45,8.38,30.33,30.33,0,0,0-5.31,11.51l-.53,3.16-.2,3.23-.09,7.34-.18,14.68-.28,14.68c-.71,39.13-1.76,78.27-3.78,117.4-2-39.13-3.07-78.27-3.78-117.4l-.28-14.68-.18-14.68-.09-7.34c0-1.33.1-2.73.16-4.1s.37-2.73.59-4.09a39.4,39.4,0,0,1,34.43-31.43c1.38-.09,2.79-.16,4.15-.21h11l14.68,0q58.7,0,117.4,1.08C1516.72,541.4,1555.86,542.45,1595,544.46Z" transform="translate(-333.42 -228.87)"/>
    <path class="c" d="M1015.13,761.24q-.45-6.6-1.44-13.09c-15.55-101.71-128.3-180.63-265-180.63-91.16,0-171.63,35.07-219.78,88.57-111.44,116.62-52.88,257-1.34,326.79,5.11,6.91,18.32,2.93,16.48-5-5.44-23.35-12.72-54.5-11.7-85.74C580.79,943.56,659.63,977,748.65,977c7.61,0,15.14-.23,22.59-.75,2.75-.19,5.47-.37,8.17-.63C912.3,964,1015.53,877.36,1015.53,772.28,1015.53,768.57,1015.39,764.89,1015.13,761.24Z" transform="translate(-333.42 -228.87)"/>
    <path class="d" d="M609.2,946.88A353.48,353.48,0,0,0,734,973c2.65.13,5.31.08,8,.1s5.31,0,8-.07l8-.2,7.95-.44c2.65-.11,5.29-.39,7.94-.62s5.29-.44,7.93-.78l7.91-.92c2.64-.28,5.25-.77,7.87-1.15,5.25-.74,10.45-1.75,15.66-2.71l2-.36,1.94-.43,3.88-.86c2.58-.6,5.19-1.08,7.74-1.79l7.69-2c2.57-.64,5.08-1.49,7.62-2.22,5.1-1.44,10.07-3.25,15.08-4.94a288.69,288.69,0,0,0,57.08-27.34,242.68,242.68,0,0,0,49-39.82A218.57,218.57,0,0,0,985,861.75a185,185,0,0,0,15.52-27.65l1.62-3.63c.55-1.21,1.1-2.42,1.54-3.67l2.82-7.45,2.38-7.61c.43-1.26.72-2.56,1.06-3.85l1-3.87a178.66,178.66,0,0,0,4.62-31.74l.13,8.08c0,.67,0,1.35,0,2l-.1,2-.19,4c-.08,1.35-.11,2.7-.26,4l-.47,4-.47,4c-.12,1.35-.44,2.67-.65,4l-.71,4c-.23,1.34-.46,2.68-.82,4l-1.95,7.91-2.41,7.8c-.37,1.31-.86,2.58-1.34,3.86l-1.43,3.83a187.64,187.64,0,0,1-14.59,29.27,212.5,212.5,0,0,1-43,49.23A247.72,247.72,0,0,1,921,934a290.86,290.86,0,0,1-58.75,28.72,325.2,325.2,0,0,1-63.5,15.25,334.72,334.72,0,0,1-65.11,2.56l-8.13-.56-8.1-.81c-2.7-.24-5.39-.62-8.08-1l-4-.55c-1.35-.17-2.68-.39-4-.63l-8-1.39c-2.66-.5-5.31-1.08-8-1.62l-4-.83-4-1c-2.63-.66-5.28-1.21-7.88-2L661.66,968c-2.61-.72-5.16-1.62-7.74-2.42l-3.86-1.24c-1.28-.42-2.55-.9-3.82-1.35-2.54-.91-5.09-1.82-7.61-2.78A294,294,0,0,1,609.2,946.88Z" transform="translate(-333.42 -228.87)"/>
    <path class="d" d="M1467.81,817.43v86.86H1334.38a34.87,34.87,0,0,1-34.86-34.88V756.31h107.18A61.11,61.11,0,0,1,1467.81,817.43Z" transform="translate(-333.42 -228.87)"/>
    <path class="d" d="M731.79,1374.61c0,75,31.76,138.85,81.73,189.75H750.16c-41.84-52.39-67.92-115.82-69.86-189.75-2.7-103.57,46.71-197.07,126-263.38h82.73C794.13,1168.64,731.79,1265.19,731.79,1374.61Z" transform="translate(-333.42 -228.87)"/>
    <path class="d" d="M1204.21,1350.23v155.45a58.64,58.64,0,0,1-31.6,52.07,53.36,53.36,0,0,1-8,3.42,57.87,57.87,0,0,1-19,3.19H836.09c17.42-93.79,100.17-171.2,233.31-201a557,557,0,0,1,121.92-13.25C1195.64,1350.09,1199.95,1350.13,1204.21,1350.23Z" transform="translate(-333.42 -228.87)"/>
    <path class="g" d="M1138.48,1346.75H1127.6a3.89,3.89,0,0,1,0-7.79h10.88a3.89,3.89,0,0,1,0,7.79Zm-69.09,0h-18.63a3.89,3.89,0,0,1,0-7.79h18.63a3.89,3.89,0,0,1,0,7.79Zm-76.84,0H973.92a3.89,3.89,0,0,1,0-7.79h18.63a3.89,3.89,0,0,1,0,7.79Zm-76.84,0H897.08a3.89,3.89,0,0,1,0-7.79H915.7a3.89,3.89,0,0,1,0,7.79Zm-76.84,0H820.23a3.89,3.89,0,0,1,0-7.79h18.63a3.89,3.89,0,0,1,0,7.79Zm-76.84,0H743.39a3.89,3.89,0,0,1,0-7.79H762a3.89,3.89,0,0,1,0,7.79Zm-76.84,0H666.55a3.89,3.89,0,1,1,0-7.79h18.63a3.89,3.89,0,0,1,0,7.79Zm-76.84,0H589.71a3.89,3.89,0,0,1,0-7.79h18.63a3.89,3.89,0,1,1,0,7.79Z" transform="translate(-333.42 -228.87)"/>
    <path class="d" d="M1204.21,1169.9v335.78a58.64,58.64,0,0,1-31.6,52.07,53.36,53.36,0,0,1-8,3.42l-8.57-2.93a402.44,402.44,0,0,1-86.6-194.9c-13.06-86.88,2.93-176.69,50.44-252.11h25.68A58.67,58.67,0,0,1,1204.21,1169.9Z" transform="translate(-333.42 -228.87)"/>
    <path class="d" d="M1015.53,772.28c0,105.09-103.23,191.69-236.12,203.35V822.36a61.12,61.12,0,0,1,61.12-61.12h174.6C1015.39,764.89,1015.53,768.57,1015.53,772.28Z" transform="translate(-333.42 -228.87)"/>
    <path class="a" d="M1377.22,798H878.09a50.24,50.24,0,0,0-50.23,50.23V1063C722,1132.57,652.26,1246.73,655.44,1375.75c6.27,254.79,271.4,390.72,499,390.72a442.91,442.91,0,0,0,86.91-8.58c-9.79-14.4-23.59-24.7-32.89-39.38a389.18,389.18,0,0,1-58.41,4.41c-199.16,0-443.11-128.15-443.11-347.17,0-99.8,46.74-189.41,120.95-250.92v82.94A50.24,50.24,0,0,0,878.09,1258h499.13a50.24,50.24,0,0,0,50.23-50.25V848.21A50.24,50.24,0,0,0,1377.22,798Z" transform="translate(-333.42 -228.87)"/>
    <path class="b" d="M1427.45,995.56v212.2a50.24,50.24,0,0,1-50.23,50.25H1068.08c11.41-68.81,42.4-135.38,91.7-183.07C1230.15,1006.9,1328.51,986.64,1427.45,995.56Z" transform="translate(-333.42 -228.87)"/>
    <path class="b" d="M1256.21,993.33c0,56.44-13.13,110.3-37,159.6-19.63-6.75-22.89-17.49-42.19-24.73a319.55,319.55,0,0,0,31.81-138.57c0-70.09-23.12-135.64-63.31-191.64h55C1236.38,856.55,1256.21,923,1256.21,993.33Z" transform="translate(-333.42 -228.87)"/>
    <path class="c" d="M1665.6,1531.88,1605.29,1401a261,261,0,0,0,24.58-110.9c0-144.74-117.31-262.06-262.06-262.06s-262.06,117.31-262.06,262.06a260.7,260.7,0,0,0,19.82,100.08c39.28,95.08,132.94,162,242.24,162a262,262,0,0,0,193.46-85.3l89.57,77.67C1659.3,1550.14,1669.86,1541.13,1665.6,1531.88Z" transform="translate(-333.42 -228.87)"/>
    <path class="d" d="M1650.84,1544.48q-6-4.4-11.89-8.91l-5.9-4.5-5.85-4.56c-7.83-6-15.52-12.26-23.26-18.42s-15.35-12.46-23-18.75-15.18-12.65-22.73-19l6.46-.37a249.06,249.06,0,0,1-35.1,32.35c-6.33,4.83-13,9.25-19.72,13.48s-13.79,8-20.92,11.49a235,235,0,0,1-44.64,16.35,216.78,216.78,0,0,1-46.72,6.83,334.31,334.31,0,0,0,45.13-12.09,287.31,287.31,0,0,0,81-43.71q9.12-7,17.67-14.78c2.83-2.59,5.64-5.22,8.36-7.93l8.06-8.25.15-.16a4.58,4.58,0,0,1,6.31-.22q11.07,9.86,22.05,19.81t21.82,20.08c7.19,6.79,14.43,13.52,21.53,20.42l5.35,5.15,5.29,5.21Q1645.65,1539.16,1650.84,1544.48Z" transform="translate(-333.42 -228.87)"/>
    <path class="e" d="M942,795.12c-19.86-.44-39.73-.66-59.59-1l-3.72-.06c-1.25,0-2.65.07-4,.11l-2,.08c-.67.07-1.33.17-2,.26-1.33.2-2.67.32-4,.6a57.18,57.18,0,0,0-15.14,5.46,56.1,56.1,0,0,0-12.88,9.73l-2.76,3c-.84,1.06-1.65,2.14-2.48,3.22a33,33,0,0,0-2.25,3.38,31,31,0,0,0-2,3.53,53.19,53.19,0,0,0-5.28,15.37c-.21,1.34-.46,2.69-.63,4l-.25,4.08c-.11,1.41-.08,2.58-.1,3.84l0,3.72-.34,29.79-.42,59.59-.36,59.59-.11,49.93a11.86,11.86,0,0,1-5.14,9.76,400.54,400.54,0,0,0-97.41,94.38,347.11,347.11,0,0,0-20,30.51c-1.5,2.65-3.1,5.23-4.52,7.93l-4.32,8c-2.72,5.44-5.5,10.85-8,16.41a337.14,337.14,0,0,0-13.44,33.9,320.23,320.23,0,0,0-9.81,35.1,343.25,343.25,0,0,0-5.95,35.93,351.32,351.32,0,0,0-2.11,36.32c-.08,3,.06,6.06.1,9.09l.1,4.54c0,1.51.16,3,.24,4.53l.53,9.06c.24,3,.56,6,.84,9l.43,4.52c.16,1.5.39,3,.58,4.5l1.2,9,1.53,8.94.78,4.46.94,4.44a332,332,0,0,0,22.27,68.72c5,11,10.6,21.61,16.62,32,6.17,10.31,12.88,20.26,20,29.91q-9.77-15.08-18.14-30.92c-5.47-10.61-10.52-21.41-14.92-32.48a349.67,349.67,0,0,1-11.45-33.76,343.22,343.22,0,0,1-7.8-34.71c-7.94-46.72-6.81-95,4.45-140.75a345,345,0,0,1,10.07-33.86,325.85,325.85,0,0,1,13.47-32.64c2.45-5.35,5.22-10.55,7.92-15.78l4.29-7.72c1.4-2.59,3-5.07,4.48-7.61,6.11-10.05,12.5-20,19.55-29.39,27.89-38,63-70.49,102.28-96.53h0a6.3,6.3,0,0,0,2.82-5.26l-.13-59.55-.36-59.59-.42-59.59-.34-29.79,0-3.72c0-1.23-.06-2.54,0-3.6l.12-3.36c.12-1.11.31-2.22.45-3.33a43.68,43.68,0,0,1,4.07-12.79,23.62,23.62,0,0,1,1.61-3,25.45,25.45,0,0,1,1.81-2.85l2-2.73,2.25-2.54a47.89,47.89,0,0,1,10.61-8.42,48.79,48.79,0,0,1,12.63-5c1.11-.27,2.24-.4,3.36-.61.56-.09,1.12-.2,1.69-.28l1.71-.11c1.16-.06,2.24-.18,3.47-.21l3.72-.06c19.86-.34,39.73-.56,59.59-1,39.73-.77,79.45-1.62,119.18-2.86C1021.41,796.74,981.69,795.89,942,795.12Z" transform="translate(-333.42 -228.87)"/>
    <path class="d" d="M1522.41,1501.65a260.71,260.71,0,0,1-154.59,50.46c-109.3,0-203-66.9-242.24-162a591.6,591.6,0,0,1,75-4.73C1338.33,1385.41,1458.53,1432.19,1522.41,1501.65Z" transform="translate(-333.42 -228.87)"/>
    <g>
      <path class="g" d="M1065,1156.81a3.89,3.89,0,0,1-3.89-3.89v-41.21a3.89,3.89,0,0,1,7.79,0v41.21A3.89,3.89,0,0,1,1065,1156.81Z" transform="translate(-333.42 -228.87)"/>
      <path class="g" d="M1065,1074.39a3.89,3.89,0,0,1-3.89-3.89V886.27a3.89,3.89,0,1,1,7.79,0V1070.5A3.89,3.89,0,0,1,1065,1074.39Z" transform="translate(-333.42 -228.87)"/>
    </g>
    <path class="g" d="M911.2,714.23H586.08a3.89,3.89,0,1,1,0-7.79H911.2a3.89,3.89,0,1,1,0,7.79Z" transform="translate(-333.42 -228.87)"/>
    <path class="g" d="M748.64,837.5H586.08a3.89,3.89,0,0,1,0-7.79H748.64a3.89,3.89,0,0,1,0,7.79Z" transform="translate(-333.42 -228.87)"/>
    <path class="b" d="M1241.34,1757.89c-9.79-14.4-23.59-24.7-32.89-39.38a389.19,389.19,0,0,1-58.41,4.41c-102.18,0-216.13-33.74-302.9-96.17l.11.69c6.57,41.61,34.93,76.53,73.86,92.61a620.2,620.2,0,0,0,233.32,46.41A442.91,442.91,0,0,0,1241.34,1757.89Z" transform="translate(-333.42 -228.87)"/>
    <g>
      <path class="g" d="M1415,662.91a8,8,0,0,0-5.68,2.34,7.68,7.68,0,0,0-2.47,5.8,8.2,8.2,0,1,0,8.15-8.15Z" transform="translate(-333.42 -228.87)"/>
      <path class="g" d="M1415,776.46a8,8,0,0,0-5.68,2.34,7.68,7.68,0,0,0-2.47,5.8,8.2,8.2,0,1,0,8.15-8.15Z" transform="translate(-333.42 -228.87)"/>
      <path class="g" d="M1542.32,660.56q-6.9-28.64-19.5-50.07a3.37,3.37,0,0,0-2.91-1.65h0a3.36,3.36,0,0,0-2.92,5q24.6,45.52,24.6,110.54T1517,834.92a3.35,3.35,0,0,0,2.91,5h0a3.36,3.36,0,0,0,2.92-1.67q12.62-21.89,19.51-50.29a269,269,0,0,0,7.16-63.56A272.21,272.21,0,0,0,1542.32,660.56Z" transform="translate(-333.42 -228.87)"/>
    </g>
    <g>
      <path class="g" d="M845,391.29A54.11,54.11,0,0,1,853.9,377a161.8,161.8,0,0,1,13.93-13.54q12.21-10.61,18.31-19.51t6.1-22.69a33.34,33.34,0,0,0-13-27.2q-13-10.48-36.36-10.48-18.58,0-32.25,5.57a62,62,0,0,0-21,14,4.09,4.09,0,0,1-5.52.23h0a4.15,4.15,0,0,1-.27-6.13q21.69-21.64,59.26-21.64,26.54,0,42.33,12.34t15.79,32.51a50.2,50.2,0,0,1-3.58,19.64,53.88,53.88,0,0,1-8.76,14.47A148,148,0,0,1,875,368.2a172.79,172.79,0,0,0-13.14,12.47,45.84,45.84,0,0,0-8.23,12.87,40.41,40.41,0,0,0-3.16,13.2,4.51,4.51,0,0,1-4.48,4.18h0a4.51,4.51,0,0,1-4.51-4.82A45.54,45.54,0,0,1,845,391.29Zm-5.18,69.4a8.15,8.15,0,0,1-2.52-6,8.47,8.47,0,0,1,2.52-6.24,8.17,8.17,0,0,1,6-2.52,8.61,8.61,0,0,1,8.76,8.76,8.16,8.16,0,0,1-2.52,6,8.46,8.46,0,0,1-6.24,2.52A8.15,8.15,0,0,1,839.84,460.69Z" transform="translate(-333.42 -228.87)"/>
      <path class="g" d="M947.7,460.69a8.15,8.15,0,0,1-2.52-6,8.47,8.47,0,0,1,2.52-6.24,8.17,8.17,0,0,1,6-2.52,8.61,8.61,0,0,1,8.76,8.76,8.16,8.16,0,0,1-2.52,6,8.46,8.46,0,0,1-6.24,2.52A8.15,8.15,0,0,1,947.7,460.69Z" transform="translate(-333.42 -228.87)"/>
      <path class="g" d="M1055.56,460.69a8.15,8.15,0,0,1-2.52-6,8.47,8.47,0,0,1,2.52-6.24,8.17,8.17,0,0,1,6-2.52,8.61,8.61,0,0,1,8.76,8.76,8.16,8.16,0,0,1-2.52,6,8.46,8.46,0,0,1-6.24,2.52A8.15,8.15,0,0,1,1055.56,460.69Z" transform="translate(-333.42 -228.87)"/>
      <path class="g" d="M1163.42,460.69a8.15,8.15,0,0,1-2.52-6,8.47,8.47,0,0,1,2.52-6.24,8.17,8.17,0,0,1,6-2.52,8.61,8.61,0,0,1,8.76,8.76,8.16,8.16,0,0,1-2.52,6,8.46,8.46,0,0,1-6.24,2.52A8.15,8.15,0,0,1,1163.42,460.69Z" transform="translate(-333.42 -228.87)"/>
    </g>
    <path class="c" d="M1284,993.33c0-234.07-219.85-425.12-513.41-425.12-.77,17.78,23.57,31.15,23.33,48.84,244.73,1.05,442.73,167.45,442.73,372.58a319.36,319.36,0,0,1-31.81,138.57c19.31,7.23,22.58,18,42.21,24.72C1270.87,1103.64,1284,1049.77,1284,993.33Z" transform="translate(-333.42 -228.87)"/>
    <path class="d" d="M1224.92,904.28a191.64,191.64,0,0,1,12.38,40.6,235.28,235.28,0,0,1,.63,84.86,190.69,190.69,0,0,1-11.8,40.77c1.63-14.06,3.25-27.89,4.24-41.73s1.51-27.63,1.41-41.43-.77-27.6-2-41.41S1226.76,918.32,1224.92,904.28Z" transform="translate(-333.42 -228.87)"/>
    <path class="d" d="M1283.89,1001.06a278.06,278.06,0,0,0-48.84,20,316.9,316.9,0,0,1-9,49.41c17.6-9.13,35.68-16.84,54-24.15A361.06,361.06,0,0,0,1283.89,1001.06Z" transform="translate(-333.42 -228.87)"/>
    <path class="f" d="M1235.09,809.36a440.63,440.63,0,0,0-87.85-103.82A485.54,485.54,0,0,0,1093,664.63a531.79,531.79,0,0,0-59.26-33.13,556.87,556.87,0,0,0-62.92-25.38,579.56,579.56,0,0,0-65.44-17.8A657.86,657.86,0,0,0,770.59,574.5l6.28-6h0v6.38l-6.67-.41A346.74,346.74,0,0,0,694,578.29l-9.43,1.58c-3.12.61-6.23,1.34-9.34,2-6.26,1.23-12.37,3-18.52,4.66-3.09.76-6.1,1.82-9.13,2.79s-6.06,1.93-9.07,3l-8.92,3.39-4.46,1.69-4.37,1.91L612,603.12c-2.87,1.37-5.68,2.85-8.53,4.25l-4.27,2.12c-1.43.7-2.78,1.54-4.17,2.3l-8.3,4.68c-2.73,1.62-5.36,3.39-8.05,5.08l-4,2.56c-1.34.86-2.59,1.83-3.88,2.74L563,632.42l-7.4,6-3.69,3-3.51,3.2c-2.32,2.16-4.72,4.22-7,6.45-4.42,4.58-8.91,9.09-13.18,13.87a247.34,247.34,0,0,0-23.69,29.86,205.08,205.08,0,0,0-30.2,69.43c-5.86,24.76-6.64,50.67-3.54,76.09a267.34,267.34,0,0,0,7.35,37.79,320,320,0,0,0,12.41,36.61,358.46,358.46,0,0,0,36.92,68.2,333.69,333.69,0,0,1-40.35-66.72c-10.77-23.77-18.86-49-22.8-75s-3.91-52.83,1.49-78.82A214.62,214.62,0,0,1,496,689.11c1.68-2.87,3.7-5.51,5.58-8.24l2.86-4.07c.48-.67.94-1.37,1.44-2l1.54-1.95,6.2-7.78c1-1.32,2.12-2.53,3.22-3.76l3.29-3.68c4.32-5,8.93-9.72,13.48-14.53,2.33-2.36,4.83-4.57,7.24-6.86l3.65-3.41,3.82-3.2c2.56-2.12,5.1-4.26,7.69-6.35l8-5.92c1.35-1,2.65-2,4-2.92l4.16-2.73c2.79-1.8,5.53-3.68,8.36-5.41l8.6-5c1.44-.81,2.85-1.71,4.33-2.46l4.42-2.27c3-1.5,5.9-3,8.88-4.48l9.08-4,4.55-2,4.64-1.79,9.27-3.57c3.12-1.09,6.28-2.08,9.42-3.13s6.27-2.13,9.48-2.94c6.38-1.74,12.74-3.61,19.23-4.92,3.23-.7,6.45-1.47,9.69-2.12l9.78-1.69,4.89-.84c1.63-.29,3.28-.43,4.92-.65l9.84-1.21c3.28-.48,6.58-.59,9.88-.87l9.89-.73c6.61-.12,13.21-.36,19.83-.37s13.22.31,19.81.74l-6.67,6h0v-6l6.28,0c46.08.23,92.24,4.84,137.24,15a590.83,590.83,0,0,1,66.48,19A547.93,547.93,0,0,1,1037.9,623a485.44,485.44,0,0,1,113.28,78.21C1184.78,732.5,1213.64,769,1235.09,809.36Z" transform="translate(-333.42 -228.87)"/>
    <path class="f" d="M1605.29,1401a265.29,265.29,0,0,0,11-30.53,254.69,254.69,0,0,0,7.24-31.51,262.05,262.05,0,0,0-37.27-184.47l-4.38-6.66c-1.43-2.24-3.09-4.32-4.63-6.49l-2.35-3.22c-.77-1.08-1.57-2.14-2.42-3.17l-5-6.21c-1.62-2.11-3.45-4-5.18-6s-3.46-4-5.29-5.95c-3.73-3.78-7.27-7.74-11.22-11.28L1540,1100l-6.05-5.17-3-2.58-3.14-2.43-6.29-4.87a263,263,0,0,0-26.7-17.21c-4.55-2.71-9.34-5-14-7.4-2.33-1.26-4.8-2.23-7.2-3.35s-4.8-2.23-7.26-3.2l-7.39-2.89c-1.24-.47-2.45-1-3.71-1.42l-3.76-1.26-7.52-2.53-7.64-2.15a250.92,250.92,0,0,0-62.65-9,273.06,273.06,0,0,0-31.7,1.09l-7.87,1c-2.62.34-5.26.6-7.85,1.12-5.21.93-10.44,1.75-15.57,3-2.57.61-5.17,1.13-7.72,1.82l-7.64,2.15c-1.27.37-2.55.7-3.82,1.09l-3.76,1.26-7.52,2.52a275.67,275.67,0,0,0-29.1,12.67c-37.94,18.93-70.7,47.84-95.28,82.51a264.39,264.39,0,0,0-30.17,245.4,265,265,0,0,1-11.45-30.49,259.61,259.61,0,0,1-7.43-31.82,253.38,253.38,0,0,1-3.34-32.59c-.27-5.47-.11-10.94-.11-16.42,0-2.74.21-5.47.34-8.21s.28-5.48.49-8.21a272.14,272.14,0,0,1,13.84-64.31l2.91-7.73,1.46-3.87,1.65-3.79,3.32-7.57c1.17-2.5,2.44-4.94,3.65-7.42,2.35-5,5.19-9.73,7.86-14.56,1.32-2.42,2.89-4.7,4.32-7.06l2.2-3.51,1.1-1.76,1.18-1.7a260.73,260.73,0,0,1,43.45-49.9l6.24-5.48,6.48-5.19c4.26-3.55,8.87-6.63,13.33-9.91a269.24,269.24,0,0,1,28.47-17.14,262.38,262.38,0,0,1,30.39-13.49l7.88-2.69,3.94-1.34c1.32-.41,2.66-.77,4-1.16l8-2.29c2.67-.73,5.4-1.29,8.09-1.94,5.38-1.37,10.86-2.27,16.32-3.26,2.72-.55,5.48-.84,8.23-1.21l8.26-1.05a280.59,280.59,0,0,1,33.24-1.28,263.5,263.5,0,0,1,65.68,9.77l8,2.29,7.88,2.68,3.94,1.34c1.31.45,2.59,1,3.88,1.5l7.73,3.07c2.58,1,5.06,2.26,7.6,3.38s5.09,2.22,7.52,3.54c4.93,2.54,9.89,5,14.63,7.91a274.79,274.79,0,0,1,27.67,18.39l6.5,5.18,3.25,2.59,3.12,2.74,6.24,5.48,6,5.75a259.64,259.64,0,0,1,41.15,51.8c1.51,2.31,2.81,4.75,4.17,7.16s2.73,4.8,4,7.24l3.69,7.41c.61,1.24,1.24,2.46,1.83,3.71l1.66,3.79,3.32,7.57,3,7.72,1.47,3.86c.5,1.28.86,2.62,1.3,3.92l2.53,7.87a268,268,0,0,1,10.9,64.86l.11,2.05v2.06l0,4.11c0,2.74.06,5.48,0,8.22-.15,5.48-.41,10.94-.88,16.39a255.72,255.72,0,0,1-13.67,63.85A266.17,266.17,0,0,1,1605.29,1401Z" transform="translate(-333.42 -228.87)"/>
    <g>
      <ellipse class="a" cx="847.07" cy="1347.07" rx="306.09" ry="190.53"/>
      <path class="e" d="M874.4,1575.94a115.1,115.1,0,0,1,2.57-30.61,117.53,117.53,0,0,1,4.23-14.9,133.2,133.2,0,0,1,6-14.34,139.86,139.86,0,0,1,7.52-13.61c1.34-2.22,2.81-4.36,4.24-6.53s3-4.26,4.56-6.31a193.17,193.17,0,0,1,20.79-23.14,225.48,225.48,0,0,1,23.94-19.84,284.71,284.71,0,0,1,26.13-16.79,346.29,346.29,0,0,1,56.55-25.3,415,415,0,0,1,59.86-15.49q15.22-2.69,30.58-4.37c2.56-.28,5.12-.56,7.68-.78s5.12-.49,7.69-.65,5.13-.36,7.7-.48,5.13-.28,7.7-.36c41.06-1.61,82.36,2.1,122,12a553.37,553.37,0,0,0-121.58-4.49c-2.52.17-5,.4-7.56.63s-5,.48-7.55.75-5,.53-7.54.82-5,.6-7.53.93q-15,2-29.9,5a422.4,422.4,0,0,0-58.4,15.63q-14.3,4.87-28.17,10.88c-9.24,4-18.24,8.49-27.08,13.26A267.72,267.72,0,0,0,929.39,1472a202.71,202.71,0,0,0-20.94,21.53c-1.64,1.9-3.15,3.89-4.71,5.86s-3,4-4.41,6.08-2.78,4.17-4.15,6.27-2.6,4.29-3.81,6.49a133.84,133.84,0,0,0-11.8,27.72A129.44,129.44,0,0,0,874.4,1575.94Z" transform="translate(-333.42 -228.87)"/>
      <g>
        <g>
          <path class="g" d="M1093.6,1658.86a3.89,3.89,0,0,1-3.89-3.89v-24.43a3.89,3.89,0,1,1,7.79,0V1655A3.89,3.89,0,0,1,1093.6,1658.86Z" transform="translate(-333.42 -228.87)"/>
          <path class="g" d="M1093.6,1598.36a3.89,3.89,0,0,1-3.89-3.89v-109.2a3.89,3.89,0,1,1,7.79,0v109.2A3.89,3.89,0,0,1,1093.6,1598.36Z" transform="translate(-333.42 -228.87)"/>
        </g>
        <g>
          <path class="g" d="M1174,1658.86a3.89,3.89,0,0,1-3.89-3.89v-24.43a3.89,3.89,0,1,1,7.79,0V1655A3.89,3.89,0,0,1,1174,1658.86Z" transform="translate(-333.42 -228.87)"/>
          <path class="g" d="M1174,1598.36a3.89,3.89,0,0,1-3.89-3.89v-109.2a3.89,3.89,0,1,1,7.79,0v109.2A3.89,3.89,0,0,1,1174,1598.36Z" transform="translate(-333.42 -228.87)"/>
        </g>
        <g>
          <path class="g" d="M1254.48,1658.86a3.89,3.89,0,0,1-3.89-3.89v-24.43a3.89,3.89,0,1,1,7.79,0V1655A3.89,3.89,0,0,1,1254.48,1658.86Z" transform="translate(-333.42 -228.87)"/>
          <path class="g" d="M1254.48,1598.36a3.89,3.89,0,0,1-3.89-3.89v-109.2a3.89,3.89,0,1,1,7.79,0v109.2A3.89,3.89,0,0,1,1254.48,1598.36Z" transform="translate(-333.42 -228.87)"/>
        </g>
      </g>
    </g>
    <path class="b" d="M921.11,1720.06a683.48,683.48,0,0,0,159.81,38l10.21,1,5.11.5,5.12.37,10.23.77,10.24.55c13.68.61,27.26.92,41,.49,6.87-.26,13.8.11,20.62,0s13.64-.29,20.45-.59c13.61-.73,27.21-1.92,40.7-3.8a433.09,433.09,0,0,0,79.57-18c6.46-2.13,12.88-4.4,19.22-6.85s12.6-5.11,18.79-7.92,12.27-5.86,18.27-9,11.91-6.55,17.67-10.14a250,250,0,0,0,32.75-24.14,189.78,189.78,0,0,0,27.71-29.72,146,146,0,0,0,19.75-35.53,125.74,125.74,0,0,0,5.73-19.65,120.68,120.68,0,0,0,2.5-20.42,121.45,121.45,0,0,1-1.05,20.67,126.37,126.37,0,0,1-4.63,20.28,145.87,145.87,0,0,1-18.41,37.41,193.45,193.45,0,0,1-27.32,31.66,244.28,244.28,0,0,1-32.93,25.8,295.56,295.56,0,0,1-36.43,20.52q-9.45,4.48-19.12,8.44c-6.45,2.62-13,5.05-19.56,7.34a432.65,432.65,0,0,1-81.2,18.92c-13.79,1.84-27.66,3-41.54,3.65-6.94.27-13.89.5-20.84.49-3.49.05-6.9-.07-10.35-.11l-5.16-.1c-1.72,0-3.44,0-5.16,0-3.45,0-6.87.1-10.34,0l-10.4-.22c-3.47,0-6.93-.28-10.39-.42s-6.93-.29-10.38-.57c-13.85-.79-27.62-2.38-41.36-4.18-6.85-1.05-13.71-2-20.52-3.22-3.41-.61-6.83-1.15-10.22-1.82l-10.17-2.07c-13.53-2.92-27-6.11-40.27-9.95A553.71,553.71,0,0,1,921.11,1720.06Z" transform="translate(-333.42 -228.87)"/>
    <path class="g" d="M1530.21,1277h-46.57a3.89,3.89,0,1,1,0-7.79h46.57a3.89,3.89,0,0,1,0,7.79Zm-139.71,0h-46.57a3.89,3.89,0,1,1,0-7.79h46.57a3.89,3.89,0,0,1,0,7.79Zm-139.71,0h-46.57a3.89,3.89,0,1,1,0-7.79h46.57a3.89,3.89,0,0,1,0,7.79Z" transform="translate(-333.42 -228.87)"/>
    <path class="f" d="M747.37,1111.22c-23.58,1.18-47.16,1.87-70.74,2.55l-35.37.84-35.37.62-2.21,0c-.74,0-1.39.08-2.09.09-1.37,0-2.74.21-4.1.34a58.78,58.78,0,0,0-8,1.61,55.55,55.55,0,0,0-35.59,31.12,63,63,0,0,0-2.67,7.65,56.33,56.33,0,0,0-1.52,8c-.09.67-.12,1.35-.18,2s-.11,1.35-.12,2l-.06,2.05v2.21l0,8.84-.12,35.37-.52,70.74-.89,70.74c-.74,47.16-1.65,94.32-3.18,141.47-1.53-47.16-2.44-94.32-3.18-141.47l-.89-70.74-.52-70.74-.12-35.37,0-8.84v-2.21l0-2.37c0-.8,0-1.59.11-2.38s.09-1.59.19-2.38a61.22,61.22,0,0,1,4.83-18.44A62.11,62.11,0,0,1,587.28,1109a67.19,67.19,0,0,1,9.35-1.55c1.57-.1,3.15-.25,4.72-.23h2.33l2.21,0,35.37.62,35.37.84C700.22,1109.35,723.79,1110,747.37,1111.22Z" transform="translate(-333.42 -228.87)"/>
  </g>
</svg>
