<svg xmlns="http://www.w3.org/2000/svg" width="1523.9" height="1418.48" viewBox="0 0 1523.9 1418.48">
  <defs>
    <style>
      .a {
        fill: #fff;
      }

      .b {
        fill: #573430;
      }

      .c {
        fill: #ffe05c;
      }

      .d {
        fill: #8fcadc;
      }
    </style>
  </defs>
  <title>104</title>
  <g>
    <g>
      <path class="a" d="M1527.69,937.32l-.84-3.74a220,220,0,0,1-48,5,224.83,224.83,0,0,1-48-4.82l-.87,3.76a22.4,22.4,0,0,0-.19,4,17.93,17.93,0,0,0,4.32,11.43c6.27,6.27,23.94,10.67,44.75,10.67,21.48,0,39.61-4.82,45.31-11.41v.06C1526.82,949.22,1528.57,943.56,1527.69,937.32Z" transform="translate(-272.99 -225.91)"/>
      <path class="a" d="M1567.57,890.88l-.22-.26c-14.07,11.76-48.4,20.09-88.53,20.09s-74.42-8.1-88.51-19.86l-.22.28a42,42,0,0,0-.35,7.28c.35,8.51,3.35,16,7.86,20.76,6,6,17.85,11.11,33.25,14.56a224.83,224.83,0,0,0,48,4.82,220,220,0,0,0,48-5c16.33-3.7,28.63-9.25,34.25-15.77v.07C1566,912.45,1569.13,902.2,1567.57,890.88Z" transform="translate(-272.99 -225.91)"/>
      <path class="a" d="M1577.62,857.63l-.93-1c-13.91,13.64-52.47,23.21-97.88,23.23h-.09c-45.62,0-84.34-9.68-98.08-23.42l-.63,1.45a47.8,47.8,0,0,0-.37,8.1c.39,9.47,3.72,17.81,8.75,23.12a21.32,21.32,0,0,0,1.92,1.71c14.09,11.76,48.4,19.86,88.51,19.86s74.46-8.32,88.53-20.09a24.68,24.68,0,0,0,3.07-3v.09C1575.85,881.66,1579.37,870.23,1577.62,857.63Z" transform="translate(-272.99 -225.91)"/>
      <path class="a" d="M1583.44,810.91l-.17.07c-.3,2.72-2.35,6.29-4.3,8.84-11.49,14.95-52,26-100.17,26h-.09c-48.21,0-88.68-11.09-100.18-26-1.94-2.55-4-6.12-4.28-8.84l-.17-.07c-3.07,7.33-3.2,14.26-2.94,20.46.43,10.28,4,19.34,9.49,25.09,13.74,13.74,52.46,23.4,98.08,23.42h.09c45.4,0,84-9.59,97.88-23.23a2.06,2.06,0,0,0,.2-.19c5.45-5.75,9.07-14.82,9.49-25.09C1586.63,825.17,1586.52,818.24,1583.44,810.91Z" transform="translate(-272.99 -225.91)"/>
      <path class="b" d="M1586.38,834h-.11a2.64,2.64,0,0,1-2.53-2.75c.32-7.83.09-17-6.84-26.62a2.65,2.65,0,0,1,4.3-3.09c7.54,10.48,8.22,20.57,7.83,29.92A2.64,2.64,0,0,1,1586.38,834Z" transform="translate(-272.99 -225.91)"/>
      <path class="b" d="M1371.14,834a2.64,2.64,0,0,1-2.64-2.54c-.39-9.35.29-19.44,7.83-29.92a2.64,2.64,0,0,1,4.3,3.09c-6.93,9.64-7.16,18.79-6.84,26.62a2.65,2.65,0,0,1-2.53,2.75Z" transform="translate(-272.99 -225.91)"/>
      <path class="c" d="M1476,350.15c-106.51,1.48-193.2,88.85-193.89,195.37a196.15,196.15,0,0,0,61.32,144,108,108,0,0,1,33.38,78.38v45c9.93,17.68,28.8,26.35,50.36,31H1532.4c18-6.37,35.21-14.1,48.39-28v-48a109.07,109.07,0,0,1,33.86-78.84,196.13,196.13,0,0,0,60.85-142.25C1675.5,437.26,1585.92,348.62,1476,350.15Z" transform="translate(-272.99 -225.91)"/>
      <path class="a" d="M1323.92,517.93a5,5,0,0,1-4.9-5.78c4.15-24.81,16.37-49.35,35.34-71,17.57-20,40.16-36.44,63.61-46.18a5,5,0,1,1,3.81,9.17c-47.22,19.61-85.45,64.69-93,109.63A5,5,0,0,1,1323.92,517.93Z" transform="translate(-272.99 -225.91)"/>
      <path class="b" d="M1478.81,302.35a2.64,2.64,0,0,1-2.64-2.64V228.56a2.64,2.64,0,0,1,5.29,0V299.7A2.64,2.64,0,0,1,1478.81,302.35Z" transform="translate(-272.99 -225.91)"/>
      <path class="b" d="M1656.5,361.75a2.64,2.64,0,0,1-1.87-4.51l46.08-46.08a2.65,2.65,0,1,1,3.74,3.74L1658.37,361A2.64,2.64,0,0,1,1656.5,361.75Z" transform="translate(-272.99 -225.91)"/>
      <path class="b" d="M1730.52,519.53a2.65,2.65,0,0,1-.87-5.14l63.73-22.21a2.64,2.64,0,1,1,1.74,5l-63.73,22.21A2.63,2.63,0,0,1,1730.52,519.53Z" transform="translate(-272.99 -225.91)"/>
      <path class="b" d="M1306,364.85a2.64,2.64,0,0,1-1.87-.77l-49.18-49.18a2.65,2.65,0,1,1,3.74-3.74l49.18,49.18a2.64,2.64,0,0,1-1.87,4.51Z" transform="translate(-272.99 -225.91)"/>
      <path class="b" d="M1228.85,519.53a2.63,2.63,0,0,1-.87-.15l-63.73-22.21a2.64,2.64,0,1,1,1.74-5l63.73,22.21a2.65,2.65,0,0,1-.87,5.14Z" transform="translate(-272.99 -225.91)"/>
      <path class="b" d="M1478.81,882.52c-45.37,0-85.57-9.72-100-24.19-6.1-6.44-9.82-16.21-10.26-26.85a2.64,2.64,0,1,1,5.29-.22c.39,9.39,3.58,17.91,8.77,23.38,13.49,13.49,52.19,22.59,96.25,22.59a2.64,2.64,0,1,1,0,5.29Z" transform="translate(-272.99 -225.91)"/>
      <path class="b" d="M1478.81,941.17c-38.24,0-70.86-7.91-83.1-20.14-5.13-5.41-8.26-13.61-8.62-22.52a44.69,44.69,0,0,1,.36-7.74,2.65,2.65,0,0,1,5.24.7,39.22,39.22,0,0,0-.32,6.82c.32,7.66,2.91,14.6,7.13,19.05,11.08,11.07,43,18.55,79.31,18.55,37.2,0,70.21-8.14,80.28-19.8a2.55,2.55,0,0,1,.39-.37c3.58-4.3,7-13.1,5.46-24.48a2.64,2.64,0,0,1,5.24-.73c1.55,11.15-1.25,22.6-7.12,29.15a2.64,2.64,0,0,1-.39.36C1551.09,932.69,1517.57,941.17,1478.81,941.17Z" transform="translate(-272.99 -225.91)"/>
      <path class="b" d="M1478.81,913.34c-42.5,0-78.73-8.77-92.3-22.34-5.66-6-9.11-15-9.51-24.88a49.29,49.29,0,0,1,.4-8.56,2.64,2.64,0,1,1,5.24.7,44,44,0,0,0-.36,7.64c.36,8.6,3.28,16.4,8,21.4,12.39,12.38,48,20.74,88.51,20.74,41.49,0,78.34-9.11,89.61-22.15a2.6,2.6,0,0,1,.41-.39c4-4.83,7.95-14.72,6.17-27.51a2.64,2.64,0,1,1,5.24-.73c1.71,12.33-1.37,25-7.86,32.21a2.64,2.64,0,0,1-.41.37C1559.14,903.93,1521.9,913.34,1478.81,913.34Z" transform="translate(-272.99 -225.91)"/>
      <path class="b" d="M1478.72,882.52a2.64,2.64,0,0,1,0-5.29c44.06,0,82.76-9.1,96.3-22.64,5.13-5.42,8.33-13.94,8.72-23.33a2.64,2.64,0,0,1,5.29.22c-.44,10.65-4.16,20.42-10.21,26.8C1564.29,872.8,1524.09,882.52,1478.72,882.52Z" transform="translate(-272.99 -225.91)"/>
      <path class="b" d="M1478.81,848.65h-.1c-48.38,0-90.75-11.23-103.07-27.28a27.67,27.67,0,0,1-4.45-8.23,2.65,2.65,0,0,1,5.08-1.48,21.68,21.68,0,0,0,3.57,6.49c11.21,14.6,52.81,25.21,98.93,25.21s87.72-10.61,98.93-25.21a21.76,21.76,0,0,0,3.59-6.57,2.64,2.64,0,1,1,5.09,1.43,27.4,27.4,0,0,1-4.49,8.36c-12.32,16.05-54.69,27.27-103.07,27.28Z" transform="translate(-272.99 -225.91)"/>
      <path class="b" d="M1478.82,966.22c-21.36,0-39.65-4.49-46.6-11.44a20.48,20.48,0,0,1-5.1-13.2,25.82,25.82,0,0,1,.21-4.47,2.65,2.65,0,0,1,5.24.7,20.34,20.34,0,0,0-.17,3.55,15.15,15.15,0,0,0,3.6,9.72c5.78,5.77,23.4,9.84,42.81,9.84,22.48,0,38.81-5.28,43.31-10.49a2.57,2.57,0,0,1,.27-.27c1.91-2.36,3.43-7,2.67-12.47a2.64,2.64,0,0,1,5.24-.73c.9,6.47-.76,13.15-4.21,17a2.58,2.58,0,0,1-.29.28C1519.14,961.43,1500.39,966.22,1478.82,966.22Z" transform="translate(-272.99 -225.91)"/>
      <path class="b" d="M1512.75,845.87h-.12a2.65,2.65,0,0,1-2.53-2.76c.79-18.19.72-43.22.65-72.2-.12-48.44-.27-103,3.31-147.19a44.85,44.85,0,0,1-40.8-17.18,59.37,59.37,0,0,1-20,13.84,45.94,45.94,0,0,1-19.58,3.49q.49,4.57.93,9.38c4.24,45.76,5.21,101.33,6,146,.44,25.3.82,47.15,1.68,63.55a2.65,2.65,0,0,1-5.28.27c-.86-16.49-1.24-38.38-1.68-63.73-.82-47.32-1.88-107.88-7-156-9.63-1.62-20.48-6.59-32-17.36-9.69-9.07-21.45-33.6-17.83-51.39,1.68-8.24,6.57-14.07,14.15-16.85a15.87,15.87,0,0,1,15.18,1.74c11.79,8.08,20.09,34,25.29,79.08a40,40,0,0,0,18.17-3,54.42,54.42,0,0,0,18.74-13.32,82.9,82.9,0,0,1-12-27.66c-2.9-12.94-1.72-24.41,3.31-32.31,4.62-7.24,10.66-10.33,16.56-8.48,9,2.83,15.12,16.31,14.49,32-.45,11.33-6.12,25.34-15.6,36.77a40.73,40.73,0,0,0,10,9.59,41.23,41.23,0,0,0,27.63,6.29c3.54-39.55,10.31-70,23.12-79,4.49-3.15,9.54-3.73,15-1.72,7.58,2.78,12.48,8.6,14.15,16.85,3.62,17.8-8.14,42.33-17.83,51.39-9.46,8.85-19.47,14.49-29.49,16.84q-.27,3.3-.52,6.74c-3.17,43.65-3,95.57-2.92,141.38.08,29,.14,54.13-.65,72.44A2.65,2.65,0,0,1,1512.75,845.87Zm-113.93-304a12.57,12.57,0,0,0-4.33.83c-5.85,2.14-9.48,6.49-10.79,12.94-3.1,15.23,7.56,38.34,16.26,46.48,9.06,8.48,18.41,13.73,27.75,15.68-4.33-37.19-11.31-66-22.85-74A10.46,10.46,0,0,0,1398.82,541.84Zm147.7,0a10,10,0,0,0-5.84,1.92c-9.9,6.93-16.85,31.65-20.71,73.55,7.75-2.12,16.31-6.72,25.39-15.23,8.7-8.14,19.36-31.24,16.26-46.48-1.31-6.44-4.94-10.79-10.79-12.94A12.53,12.53,0,0,0,1546.52,541.84Zm-71.92-3.34c-3.91,0-7.08,4-8.73,6.55-4.28,6.7-5.2,16.76-2.61,28.31A78.21,78.21,0,0,0,1473.65,598c8.12-10.22,13.13-22.48,13.53-32.45.58-14.47-5-25-10.79-26.78A6,6,0,0,0,1474.6,538.49Z" transform="translate(-272.99 -225.91)"/>
    </g>
    <g>
      <g>
        <g>
          <polygon class="b" points="1021.69 1353.08 138.99 1353.08 2.65 576.48 885.35 576.48 1021.69 1353.08"/>
          <path class="b" d="M1294.68,1581.64H412a2.65,2.65,0,0,1-2.6-2.19L273,802.85a2.64,2.64,0,0,1,2.6-3.1h882.7a2.64,2.64,0,0,1,2.6,2.19l136.34,776.6a2.64,2.64,0,0,1-2.6,3.1Zm-880.48-5.29h877.33L1156.12,805H278.79Z" transform="translate(-272.99 -225.91)"/>
        </g>
        <g>
          <polygon class="a" points="1031.2 1353.08 171.29 1353.08 34.95 576.48 894.85 576.48 1031.2 1353.08"/>
          <path class="b" d="M1304.19,1581.64H444.28a2.65,2.65,0,0,1-2.6-2.19L305.33,802.85a2.64,2.64,0,0,1,2.6-3.1h859.91a2.64,2.64,0,0,1,2.6,2.19l136.34,776.6a2.64,2.64,0,0,1-2.6,3.1Zm-857.69-5.29H1301L1165.63,805H311.09Z" transform="translate(-272.99 -225.91)"/>
        </g>
        <g>
          <g>
            <path class="b" d="M374.22,884.42a2.61,2.61,0,0,1-1.84-4.45l39.06-39.06a2.61,2.61,0,1,1,3.69,3.69l-39.05,39.05A2.6,2.6,0,0,1,374.22,884.42Z" transform="translate(-272.99 -225.91)"/>
            <path class="b" d="M413.28,884.42a2.6,2.6,0,0,1-1.84-.76L372.38,844.6a2.61,2.61,0,0,1,3.69-3.69L415.12,880a2.61,2.61,0,0,1-1.84,4.45Z" transform="translate(-272.99 -225.91)"/>
          </g>
          <path class="b" d="M488.65,884.42H449.59a2.61,2.61,0,0,1-2.61-2.61V842.76a2.61,2.61,0,0,1,2.61-2.61h39.05a2.61,2.61,0,0,1,2.61,2.61v39.05A2.61,2.61,0,0,1,488.65,884.42ZM452.2,879.2H486V845.36H452.2Z" transform="translate(-272.99 -225.91)"/>
          <path class="b" d="M564,864.89H525.08a2.69,2.69,0,0,1-2.65-2,2.61,2.61,0,0,1,2.53-3.25h38.93a2.69,2.69,0,0,1,2.65,2A2.61,2.61,0,0,1,564,864.89Z" transform="translate(-272.99 -225.91)"/>
        </g>
        <path class="b" d="M1188.81,924.47H1088.22a2.64,2.64,0,0,1,0-5.29h100.59a2.64,2.64,0,0,1,0,5.29Z" transform="translate(-272.99 -225.91)"/>
        <path class="b" d="M678.56,924.47H329a2.73,2.73,0,0,1-2.69-2,2.65,2.65,0,0,1,2.57-3.3H678.43a2.73,2.73,0,0,1,2.69,2A2.65,2.65,0,0,1,678.56,924.47Z" transform="translate(-272.99 -225.91)"/>
      </g>
      <g>
        <path class="d" d="M765.7,1284.35l0,0L625.36,1402.1l92.4,100.81c-37.35.12-69.34,33.9-71.13,76.8l-.05.05c-53.32-43.46-122.84-93.92-157.06-135.51a84.73,84.73,0,0,1-5.17-101.39l121.41-168.15c88.51-126.14,257.36-132.14,257.36-132.14v-.9c1.89,25.46,33.15,44.2,72.29,41.89,34.45-2,54.13-24.93,52.42-50.52H988l0,.65c90.54-6.49,192.1,56.22,232.07,137.7,19.54,39.85,58.73,133.2,58.73,133.2l76.15-77.18c4.11,37,41.72,68.64,82.4,65.31l.53.35c-51,75.64-111.51,164.3-171.05,166.06-55.51.19-130.11-105.93-145.18-133.31,6.22,60.5,10.16,132.08,12.43,209.95l3.25,43.17c-174,2.34-181-.39-303.35-.39l32.6-22.91a8.23,8.23,0,0,0-1.64-7c-4.73-6.12-49.72-6.26-87.1,2.54,1.29-9.8,2.36-20.26,3.23-31.23,5.78-73.26,1.9-168.81-15.34-235.6Z" transform="translate(-272.99 -225.91)"/>
        <path class="a" d="M1554.42,1118.26c6.82-.62,19.4-.34,19.52,7.11.12,7-35.3,16.57-63.9,39,3-.69,55.89-24.77,63.25-8.32,3.1,7-15.52,13.54-20.35,15.6-43.75,18.76-55.45,36.34-81.41,72.49-10.63,14.81-21.88,31.54-33.64,48.95l-.53-.35c-40.68,3.33-78.29-28.26-82.4-65.31l21.3-21.56c.65-.6,1.27-1.23,1.85-1.89,16.86-18.3,21.67-58.59,3.34-86.34-2.4-3.61-11.34-10.21-10.56-14.83,2-11.87,19.41-6.14,26.15-2.4,12.75,7.05,20.72,22.75,34.49,25.81,26.33,5.84,54.6-39.25,101.36-39.25,13.52,0,14.19,10.46,4.18,14.53,2.08-.63,4.18-1.22,6.33-1.76,24.9-6.33,35.32,7.67,11,18.48Z" transform="translate(-272.99 -225.91)"/>
        <path class="a" d="M854.87,1563.4c13.19.53,23.54,3.67,23.45,11.46-.05,4-9.79,6.88-20.37,9.13,8,.07,13.77,3.61,14.48,7.09.58,2.86.12,5-1.25,6.7-2.42,3-7.6,4.87-15,7.39,6-.07,5.25,2.92,8.23,7.24,4.65,6.74-.63,12.15-11.37,15.47-7.9,2.43-15.22,4.48-22,6.19-31,7.79-51.61,8.69-68,6.82a134.7,134.7,0,0,1-14.09-2.36c-30.33-6.7-66.35-29.45-102.32-58.77l.05-.05c1.78-42.9,33.78-76.68,71.13-76.8L752.62,1544s10.95-19.55,26.08-24.28l2.36.19c-.86,11-1.94,21.42-3.23,31.23,37.38-8.8,82.38-8.66,87.1-2.54a8.23,8.23,0,0,1,1.64,7C865.52,1560.1,860.83,1563.79,854.87,1563.4Z" transform="translate(-272.99 -225.91)"/>
        <path class="a" d="M990.6,984.15l2.42,49.63h-.13c1.79,26.83-18.84,50.85-55,53-41.05,2.42-73.84-17.23-75.82-43.94l.06-50.58a50.34,50.34,0,0,0-3.27-17.59c-13.18-35.47-62.56-56.35-74.3-70.9-12.33-15.31-3.66-35.63,15.53-39.76,12.78-2.74,31.6,3.81,42.38,14.24,5.86,5.68,12.35,4.92,15.72,2.09,2.57-2.13,3.57-6.45,1.52-11.37-14.07-28.66-4.29-48,5.34-57.66,29.16-29.16,85.54-19.32,131.53-54.63l.06.07c17.94,33.51,30.53,74.91,40.7,111.49,6.16,22.1,11.37,49.13,4.23,71.51-6.08,19-23,32.73-41,40.35C997.68,981.32,994.3,982.71,990.6,984.15Z" transform="translate(-272.99 -225.91)"/>
        <path class="b" d="M928.45,702.48c19-16.31,72.55-27,86.32-5,13,20.73,6.36,38.49-13.48,55.4-1.55,1.31-3.11,2.57-4.68,3.79-46,35.3-102.37,25.46-131.53,54.63-9.63,9.63-19.42,29-5.34,57.66,2.05,4.92,1.05,9.25-1.52,11.37-3.37,2.83-9.86,3.59-15.72-2.09-10.78-10.43-29.61-17-42.38-14.24-19.19,4.12-27.87,24.45-15.53,39.76,11.74,14.55,61.12,35.43,74.3,70.9-8.14,5-22.95,3.11-34.8-5.25-6.88-4.86-81.36-52-93-93.77-27.52-98.73,37.59-97.4,91.94-150,26.68-25.83,67.11-89.7,101.45-66.27C941.75,671.16,936.12,691.62,928.45,702.48Z" transform="translate(-272.99 -225.91)"/>
        <path class="b" d="M777.84,1553.81l-.35,0a2.64,2.64,0,0,1-2.28-3c1.27-9.69,2.35-20.14,3.21-31.08a2.65,2.65,0,0,1,5.27.42c-.87,11-2,21.58-3.24,31.35A2.65,2.65,0,0,1,777.84,1553.81Z" transform="translate(-272.99 -225.91)"/>
        <path class="b" d="M752.62,1546.68a2.64,2.64,0,0,1-2.18-4.14c.56-.82,14-20.17,29.83-25.11a2.65,2.65,0,0,1,1.58,5c-14.09,4.4-26.92,22.87-27,23.06A2.64,2.64,0,0,1,752.62,1546.68Z" transform="translate(-272.99 -225.91)"/>
        <path class="b" d="M752.63,1546.68a2.64,2.64,0,0,1-2-.88L623.39,1403.86a2.64,2.64,0,0,1,3.94-3.53L754.6,1542.27a2.64,2.64,0,0,1-2,4.41Z" transform="translate(-272.99 -225.91)"/>
        <path class="b" d="M862.09,1046.5h0a2.64,2.64,0,0,1-2.64-2.65l.05-51.6a2.64,2.64,0,0,1,2.64-2.64h0a2.64,2.64,0,0,1,2.64,2.65l-.05,51.6A2.64,2.64,0,0,1,862.09,1046.5Z" transform="translate(-272.99 -225.91)"/>
        <path class="b" d="M993.06,1037.11a2.64,2.64,0,0,1-2.64-2.52L988,984.28a2.64,2.64,0,0,1,5.28-.26l2.46,50.32a2.64,2.64,0,0,1-2.51,2.77Z" transform="translate(-272.99 -225.91)"/>
        <path class="b" d="M835.41,896.2a2.64,2.64,0,0,1-2.25-1.25c-2-3.24-8.63-7.45-16.25-8.89-5.73-1.08-10.72-.31-14.05,2.19a2.64,2.64,0,0,1-3.17-4.24c5.82-4.35,13.11-4.11,18.2-3.15,8.38,1.59,16.7,6.34,19.77,11.31a2.65,2.65,0,0,1-2.25,4Z" transform="translate(-272.99 -225.91)"/>
        <path class="b" d="M817.46,901.44a2.63,2.63,0,0,1-1.87-.77,13.24,13.24,0,0,1-3.49-10.26c.22-3.56,1.56-6.63,3.57-8.19a2.64,2.64,0,1,1,3.25,4.18c-.52.4-1.39,1.94-1.54,4.35a8,8,0,0,0,2,6.19,2.64,2.64,0,0,1-1.87,4.51Z" transform="translate(-272.99 -225.91)"/>
        <path class="b" d="M968.17,994.64a2.65,2.65,0,0,1-.78-5.17c13.58-4.17,26-9.18,32.17-11.8,19.95-8.45,34.35-22.56,39.51-38.71,7.29-22.82,1.06-50.88-4.25-70-10.1-36.31-22.8-77.89-40.48-110.95a2.64,2.64,0,0,1,4.66-2.49c17.92,33.51,30.74,75.43,40.91,112,5.5,19.77,11.91,48.86,4.19,73-5.63,17.63-21.12,32.93-42.49,42-6.28,2.66-18.87,7.75-32.68,12A2.64,2.64,0,0,1,968.17,994.64Z" transform="translate(-272.99 -225.91)"/>
        <path class="b" d="M983.7,901.21a2.64,2.64,0,0,1-.5-5.24c7.64-1.47,12.24-3.91,13.32-7,1.93-5.64-6.25-14.93-12.81-22.4-2-2.26-3.86-4.39-5.48-6.42a2.64,2.64,0,1,1,4.13-3.3c1.55,1.94,3.38,4,5.32,6.23,7.86,8.94,16.77,19.07,13.85,27.61-1.77,5.18-7.44,8.63-17.32,10.53A2.65,2.65,0,0,1,983.7,901.21Z" transform="translate(-272.99 -225.91)"/>
        <path class="b" d="M973.34,944.92a35.09,35.09,0,0,1-6.95-.68c-7.68-1.56-13.19-5.58-15.52-11.33a2.64,2.64,0,0,1,4.9-2c2.22,5.47,8.27,7.45,11.67,8.14,8.48,1.72,18.4-.52,23.08-5.2a2.64,2.64,0,1,1,3.74,3.74C989.66,942.21,981.54,944.92,973.34,944.92Z" transform="translate(-272.99 -225.91)"/>
        <path class="b" d="M777.75,1644.4a131.8,131.8,0,0,1-29.43-3.29c-30.26-6.69-90.44-49.42-118-71.08a2.64,2.64,0,1,1,3.27-4.16c38,29.8,90.44,64.45,115.91,70.08,20.66,4.57,47.42,6.45,102.76-10.59,6.1-1.88,10.12-4.44,11-7,.17-.48.67-1.94-1-4.4-5.33-7.71-24.09-3.07-37.78.31-4.26,1.05-8.29,2-11.54,2.59a2.65,2.65,0,0,1-.87-5.22c3-.5,7-1.47,11.13-2.5,16-4,36-8.89,43.4,1.82,2.67,3.86,2.39,7.1,1.69,9.14-1.52,4.39-6.38,7.87-14.46,10.36C819.47,1641,795.82,1644.4,777.75,1644.4Z" transform="translate(-272.99 -225.91)"/>
        <path class="b" d="M857.91,1586.65a2.65,2.65,0,0,1-.55-5.23c16.95-3.61,18.23-6.33,18.32-6.63a4,4,0,0,0-1.78-3.29c-9-7.3-44.58-5.21-66.17-.5a2.64,2.64,0,1,1-1.13-5.17c17-3.7,58.34-8.45,70.64,1.57a9.36,9.36,0,0,1,3.72,7.5c-.06,5-6.37,8.26-22.5,11.7A2.67,2.67,0,0,1,857.91,1586.65Z" transform="translate(-272.99 -225.91)"/>
        <path class="b" d="M855.3,1566.74q-.49,0-1,0a2.65,2.65,0,0,1,.35-5.28,9.13,9.13,0,0,0,8.6-4.62,5.92,5.92,0,0,0-.42-6.56c-.8-1-7.9-3.68-29.31-3.29a274.38,274.38,0,0,0-55.1,6.78,2.64,2.64,0,1,1-1.21-5.15c33.63-7.91,83.22-10.09,89.8-1.58a11.08,11.08,0,0,1,.9,12.28A14.27,14.27,0,0,1,855.3,1566.74Z" transform="translate(-272.99 -225.91)"/>
        <path class="b" d="M845.22,1610a2.65,2.65,0,0,1-.85-5.15l4.08-1.35c8.35-2.73,22.32-7.3,21.39-11.92-.44-2.18-6.7-6.34-16.84-4.53-20.26,3.62-42.68,7.13-42.91,7.16a2.65,2.65,0,0,1-.82-5.23c.22,0,22.59-3.53,42.79-7.14,12.07-2.16,21.79,2.85,23,8.69,1.86,9.24-12.38,13.89-24.93,18-1.39.45-2.74.89-4,1.33A2.66,2.66,0,0,1,845.22,1610Z" transform="translate(-272.99 -225.91)"/>
        <path class="b" d="M862.15,994.9a2.64,2.64,0,0,1-2.64-2.63c-.15-31.72-31.87-53.54-55-69.47-9.56-6.58-17.81-12.25-21.94-17.38-6.16-7.64-7.92-17-4.84-25.68,3.27-9.23,11.45-16.08,21.88-18.31,13.49-2.88,33.15,3.67,44.78,14.92,4.63,4.48,9.56,4.16,12.19,2,1.56-1.3,2.4-4.36.8-8.26-16.25-33.16-1.3-53.44,5.88-60.63,14.77-14.77,36.3-19.9,59.09-25.32,24.88-5.92,53.08-12.63,77.28-33.24,13.8-11.75,27-30.67,11.69-54.08-3.8-5.8-12.43-7.82-19-8.5-21.45-2.21-52.52,6.49-63.93,17.9a2.64,2.64,0,0,1-3.74-3.74c12.55-12.55,45.06-21.8,68.21-19.42,11.06,1.14,19,4.9,22.88,10.86,13.62,20.78,9.11,42.45-12.69,61-25.17,21.43-54,28.3-79.48,34.36-23,5.47-42.86,10.2-56.57,23.92-6.39,6.39-19.64,24.49-4.84,54.63l.07.15c2.35,5.64,1.47,11.3-2.26,14.42-4.52,3.79-12.59,4.24-19.26-2.22-10.32-10-28.26-16.06-40-13.55-8.62,1.85-15.35,7.42-18,14.91-2.45,6.91-1,14.42,4,20.59,3.65,4.52,11.61,10,20.82,16.34,24.13,16.6,57.17,39.32,57.33,73.81a2.64,2.64,0,0,1-2.63,2.66Z" transform="translate(-272.99 -225.91)"/>
        <path class="b" d="M903.33,848.77a4.41,4.41,0,0,1-2.33-8.15,190.32,190.32,0,0,1,21.79-11.43,4.41,4.41,0,0,1,3.65,8,181.89,181.89,0,0,0-20.79,10.9A4.39,4.39,0,0,1,903.33,848.77Z" transform="translate(-272.99 -225.91)"/>
        <path class="b" d="M984.16,812a4.41,4.41,0,0,1-1.53-8.54c6.09-2.26,12.8-4.35,21.11-6.58a4.41,4.41,0,0,1,2.28,8.51c-8,2.16-14.49,4.17-20.32,6.33A4.39,4.39,0,0,1,984.16,812Z" transform="translate(-272.99 -225.91)"/>
        <path class="b" d="M1437.35,1295.38a2.64,2.64,0,0,1-2.19-4.12c11.16-16.54,22.52-32.36,32.55-46.33l3.87-5.39c24.73-34.49,37.14-51.8,80.32-70.32l2-.83c4.19-1.7,15.33-6.21,16.93-10.16a1.26,1.26,0,0,0,0-1.1c-2.42-5.41-14.1-8.38-56,8.24a42,42,0,0,1-4.23,1.57,2.65,2.65,0,0,1-1.21-5.15c.38-.11,2-.74,3.49-1.34,23.79-9.43,56.18-20.26,62.79-5.48a6.56,6.56,0,0,1,.07,5.24c-2.24,5.57-11.42,9.67-19.85,13.08l-1.93.79c-41.83,17.94-54,34.85-78.11,68.54L1472,1248c-10,13.93-21.34,29.73-32.46,46.2A2.64,2.64,0,0,1,1437.35,1295.38Z" transform="translate(-272.99 -225.91)"/>
        <path class="b" d="M1510,1167a2.65,2.65,0,0,1-1.63-4.73c15.18-11.91,32.35-20.29,44.88-26.42,8.09-4,17.26-8.43,18-10.53a2.88,2.88,0,0,0-1.2-2.29c-3.89-3.11-14.91-2.5-18.64-1.73-15.57,3.21-33.06,11.13-49.22,22.3a2.65,2.65,0,0,1-3-4.35c16.74-11.56,34.91-19.78,51.16-23.13.15,0,16-2.86,23,2.78a8.17,8.17,0,0,1,3.19,6.41c.08,5-7.4,8.66-21,15.3-12.32,6-29.2,14.27-43.94,25.83A2.64,2.64,0,0,1,1510,1167Z" transform="translate(-272.99 -225.91)"/>
        <path class="b" d="M1489.89,1126.4a2.65,2.65,0,0,1-1.37-4.91c15.66-9.46,33.07-19,54.22-24.33,13.92-3.54,25.3-1.2,27.69,5.68,2.09,6-3.49,12.69-14.93,17.78a2.64,2.64,0,1,1-2.15-4.83c9.51-4.23,12.93-8.78,12.09-11.22-1-2.86-8.48-5.56-21.39-2.28-20.48,5.2-37.48,14.48-52.79,23.73A2.63,2.63,0,0,1,1489.89,1126.4Z" transform="translate(-272.99 -225.91)"/>
        <circle class="b" cx="655.26" cy="641.13" r="7.33"/>
        <circle class="b" cx="735.33" cy="611.94" r="7.33"/>
        <path class="b" d="M1267.39,1312a10.16,10.16,0,0,1-1.4-.09,2.65,2.65,0,0,1,.73-5.24c4.33.62,11.79-4.48,16.85-9,6.11-5.47,22.92-23.19,40.72-41.95,10-10.49,20.26-21.34,28.77-30.13l.14-.14c1.44-1.45,15.86-16,20.72-21,17.63-18.23,24.68-56,5.31-85.35a33.9,33.9,0,0,0-3.44-3.82c-3.88-4-8.27-8.44-7.53-12.91a10.31,10.31,0,0,1,5.71-8c7.71-3.73,20.18,1.42,24.33,3.72,5.69,3.15,10.39,7.83,14.94,12.36,6,6,11.63,11.58,18.85,13.18,11.15,2.48,23.41-5.55,37.61-14.85,17.51-11.47,37.36-24.46,63.18-24.46,8.83,0,12.77,4.06,13.51,7.87.91,4.63-2.44,9.35-8.33,11.75a2.65,2.65,0,1,1-2-4.9c4-1.62,5.46-4.16,5.13-5.83s-2.7-3.59-8.32-3.59c-24.24,0-43.39,12.54-60.28,23.6-15.2,10-28.33,18.55-41.66,15.59-8.72-1.94-15.19-8.37-21.44-14.6-4.29-4.27-8.72-8.69-13.77-11.48s-14.73-5.87-19.46-3.58a5,5,0,0,0-2.8,4.11c-.3,1.82,3.86,6.06,6.09,8.34a35.43,35.43,0,0,1,4.08,4.61c20.81,31.49,13.13,72.25-5.93,91.95-5.11,5.29-20.73,21-20.89,21.16l-.09.09c-8.47,8.75-18.71,19.54-28.62,30-17.88,18.84-34.76,36.63-41,42.24C1283.49,1304.84,1274.67,1312,1267.39,1312Z" transform="translate(-272.99 -225.91)"/>
        <path class="b" d="M847.69,980.09c-8.06,0-17.25-3-25.14-8.52l-1.08-.76c-23.42-16.36-79.35-58.3-92.89-94.23-5-13.23-10.3-30.92-7.11-50.45,3.69-22.59,18.22-43.06,43.2-60.83,29.94-21.3,62.58-46.73,98.36-88.18,21.8-25.26,46-32.87,63-19.86,6.89,5.25,10.9,12,11.92,19.92,1.42,11.1-3.45,21.92-8.48,28.34a2.64,2.64,0,0,1-4.16-3.26c4.37-5.58,8.61-14.92,7.4-24.41-.83-6.51-4.16-12-9.88-16.39-14.63-11.15-36-3.83-55.81,19.11-36.15,41.88-69.09,67.54-99.3,89-51.58,36.7-45.38,75.45-34.21,105.11,13,34.55,68,75.68,91,91.76l1.1.77c10.72,7.56,24.43,9.79,31.89,5.18a2.64,2.64,0,0,1,2.78,4.5A23.88,23.88,0,0,1,847.69,980.09Z" transform="translate(-272.99 -225.91)"/>
        <path class="a" d="M922.6,708.5a2.65,2.65,0,0,1-1.69-4.68,83.16,83.16,0,0,1,26.29-15.11,2.64,2.64,0,0,1,1.72,5,78,78,0,0,0-24.63,14.18A2.63,2.63,0,0,1,922.6,708.5Z" transform="translate(-272.99 -225.91)"/>
        <path class="b" d="M497.13,1446.71a2.65,2.65,0,0,1-2.31-3.94c12.09-21.63,10.76-46.73,7.51-64l-.45-2.39c-2.23-12-5-27-13-35.75a2.65,2.65,0,0,1,3.91-3.56c9,9.85,11.9,25.65,14.25,38.35l.44,2.38c4.88,26,2.08,49.31-8.09,67.53A2.64,2.64,0,0,1,497.13,1446.71Z" transform="translate(-272.99 -225.91)"/>
        <path class="b" d="M1312.51,1438.11a2.64,2.64,0,0,1-2.15-1.1c-6.61-9.23-22.56-15.73-41.62-17-19.56-1.27-36.84,3.45-45.11,12.31a2.64,2.64,0,1,1-3.87-3.61c9.32-10,28.22-15.33,49.31-14,20.6,1.34,38.07,8.68,45.58,19.17a2.64,2.64,0,0,1-2.15,4.18Z" transform="translate(-272.99 -225.91)"/>
        <path class="b" d="M1137.33,1581.6a2.65,2.65,0,0,1-2.64-2.52c-.11-2.23-10.77-224.55-24.3-322.37a2.64,2.64,0,1,1,5.24-.72c13.56,98.06,24.24,320.61,24.34,322.85a2.64,2.64,0,0,1-2.52,2.77Z" transform="translate(-272.99 -225.91)"/>
        <g>
          <path class="a" d="M875.48,1579.32l346.83-.33Z" transform="translate(-272.99 -225.91)"/>
          <path class="b" d="M875.48,1582a2.64,2.64,0,0,1,0-5.29l346.83-.33h0a2.64,2.64,0,0,1,0,5.29l-346.83.33Z" transform="translate(-272.99 -225.91)"/>
        </g>
        <path class="b" d="M605,1418.76a2.64,2.64,0,0,1-1.56-4.78c6.68-4.85,12.86-9.6,17.63-14.72-6.87-10.49-12.81-22-11.07-30.34a11.51,11.51,0,0,1,5.53-7.77c4.77-2.88,8.76-2,11.27-.7,5.32,2.7,8.57,9.25,9,14.33.89,9.9-2.7,18-8.12,24.89,1,1.46,1.88,2.7,2.55,3.64a2.64,2.64,0,1,1-4.31,3.06q-.91-1.28-1.82-2.6c-5.46,5.69-12,10.41-17.56,14.49A2.63,2.63,0,0,1,605,1418.76Zm16.87-54.22a7,7,0,0,0-3.61,1.14,6.25,6.25,0,0,0-3.09,4.32c-1.35,6.46,4.39,17.11,9.44,25,4.26-5.79,6.62-12.17,5.93-19.76-.32-3.51-2.75-8.36-6.15-10.08A5.53,5.53,0,0,0,621.85,1364.54Z" transform="translate(-272.99 -225.91)"/>
      </g>
      <path class="b" d="M523.34,1148.05a2.64,2.64,0,0,1-1.85-4.53c16.2-15.89,34.15-32.54,55.6-46.62a2.64,2.64,0,1,1,2.9,4.42c-21.07,13.83-38.79,30.27-54.8,46A2.63,2.63,0,0,1,523.34,1148.05Z" transform="translate(-272.99 -225.91)"/>
      <path class="b" d="M557.17,1149.83a2.64,2.64,0,0,1-1.8-4.58c.41-.41,3.18-3.43,6.11-6.63,6-6.52,14.14-15.44,17-18.24a2.64,2.64,0,1,1,3.71,3.77c-2.74,2.71-11.2,11.94-16.79,18.05-4.82,5.27-6.09,6.64-6.44,7A2.63,2.63,0,0,1,557.17,1149.83Z" transform="translate(-272.99 -225.91)"/>
      <path class="b" d="M402.18,1029.21a2.64,2.64,0,0,1-1.91-4.47c10.71-11.23,22.45-23.21,35.73-34.65a2.64,2.64,0,1,1,3.45,4c-13.11,11.29-24.74,23.16-35.36,34.29A2.64,2.64,0,0,1,402.18,1029.21Z" transform="translate(-272.99 -225.91)"/>
      <path class="b" d="M411.87,1050.76a2.64,2.64,0,0,1-2-4.39,46.64,46.64,0,0,1,9.14-8,2.64,2.64,0,1,1,2.94,4.4,41.36,41.36,0,0,0-8.1,7.09A2.64,2.64,0,0,1,411.87,1050.76Z" transform="translate(-272.99 -225.91)"/>
    </g>
  </g>
</svg>
